<mxfile host="app.diagrams.net" modified="2021-07-22T13:09:52.364Z" agent="5.0 (Windows NT 10.0; Win64; x64) AppleWebKit/537.36 (KHTML, like Gecko) Chrome/92.0.4515.107 Safari/537.36" etag="R7djL6gjM7TgrnfYgZvX" version="14.9.1" type="github">
  <diagram id="C5RBs43oDa-KdzZeNtuy" name="Page-1">
    <mxGraphModel dx="316" dy="627" grid="1" gridSize="10" guides="1" tooltips="1" connect="1" arrows="1" fold="1" page="1" pageScale="1" pageWidth="827" pageHeight="1169" math="0" shadow="0">
      <root>
        <mxCell id="WIyWlLk6GJQsqaUBKTNV-0" />
        <mxCell id="WIyWlLk6GJQsqaUBKTNV-1" parent="WIyWlLk6GJQsqaUBKTNV-0" />
        <mxCell id="KJCioZVpsJPs6qXIDCtf-3" value="" style="group" vertex="1" connectable="0" parent="WIyWlLk6GJQsqaUBKTNV-1">
          <mxGeometry x="20" y="180" width="1550" height="1330" as="geometry" />
        </mxCell>
        <mxCell id="KJCioZVpsJPs6qXIDCtf-15" value="" style="group" vertex="1" connectable="0" parent="KJCioZVpsJPs6qXIDCtf-3">
          <mxGeometry x="10" y="-80" width="1550" height="1330" as="geometry" />
        </mxCell>
        <mxCell id="J4wgWrxB4ma67eAixFHz-62" value="" style="shape=folder;fontStyle=1;spacingTop=10;tabWidth=120;tabHeight=30;tabPosition=left;html=1;noLabel=0;overflow=visible;direction=east;labelPadding=0;container=0;connectable=1;snapToPoint=0;gradientColor=#b3b3b3;fillColor=#f5f5f5;strokeColor=#666666;" parent="KJCioZVpsJPs6qXIDCtf-15" vertex="1">
          <mxGeometry width="1550" height="1330" as="geometry">
            <mxRectangle x="20" y="90" width="80" height="30" as="alternateBounds" />
          </mxGeometry>
        </mxCell>
        <mxCell id="KJCioZVpsJPs6qXIDCtf-0" value="" style="group" vertex="1" connectable="0" parent="KJCioZVpsJPs6qXIDCtf-15">
          <mxGeometry x="800" y="50" width="699.6226415094338" height="1270" as="geometry" />
        </mxCell>
        <mxCell id="Y3e_ZOHxvSrWSQM1bqO8-1" value="" style="shape=folder;fontStyle=1;spacingTop=10;tabWidth=120;tabHeight=30;tabPosition=left;html=1;fillColor=#d5e8d4;gradientColor=#97d077;strokeColor=#82b366;" parent="KJCioZVpsJPs6qXIDCtf-0" vertex="1">
          <mxGeometry width="699.622641509434" height="1270" as="geometry" />
        </mxCell>
        <mxCell id="Y3e_ZOHxvSrWSQM1bqO8-2" value="&lt;span style=&quot;font-size: 18px&quot;&gt;&lt;b&gt;view&lt;/b&gt;&lt;/span&gt;" style="text;html=1;strokeColor=none;fillColor=none;align=center;verticalAlign=middle;whiteSpace=wrap;rounded=0;" parent="KJCioZVpsJPs6qXIDCtf-0" vertex="1">
          <mxGeometry width="120" height="30" as="geometry" />
        </mxCell>
        <mxCell id="Y3e_ZOHxvSrWSQM1bqO8-3" value="AnagraficheView" style="swimlane;fontStyle=1;align=center;verticalAlign=top;childLayout=stackLayout;horizontal=1;startSize=26;horizontalStack=0;resizeParent=1;resizeParentMax=0;resizeLast=0;collapsible=1;marginBottom=0;" parent="KJCioZVpsJPs6qXIDCtf-0" vertex="1">
          <mxGeometry x="16.066753050222246" y="311" width="371.6494845360826" height="944" as="geometry" />
        </mxCell>
        <mxCell id="Y3e_ZOHxvSrWSQM1bqO8-4" value="+ controller: AnagraficheController&#xa;" style="text;strokeColor=none;fillColor=none;align=left;verticalAlign=top;spacingLeft=4;spacingRight=4;overflow=hidden;rotatable=0;points=[[0,0.5],[1,0.5]];portConstraint=eastwest;" parent="Y3e_ZOHxvSrWSQM1bqO8-3" vertex="1">
          <mxGeometry y="26" width="371.6494845360826" height="26" as="geometry" />
        </mxCell>
        <mxCell id="Y3e_ZOHxvSrWSQM1bqO8-21" value="+ dipendente: DipendenteModel&#xa;" style="text;strokeColor=none;fillColor=none;align=left;verticalAlign=top;spacingLeft=4;spacingRight=4;overflow=hidden;rotatable=0;points=[[0,0.5],[1,0.5]];portConstraint=eastwest;" parent="Y3e_ZOHxvSrWSQM1bqO8-3" vertex="1">
          <mxGeometry y="52" width="371.6494845360826" height="26" as="geometry" />
        </mxCell>
        <mxCell id="Y3e_ZOHxvSrWSQM1bqO8-22" value="+ controller_cliente: ClienteController" style="text;strokeColor=none;fillColor=none;align=left;verticalAlign=top;spacingLeft=4;spacingRight=4;overflow=hidden;rotatable=0;points=[[0,0.5],[1,0.5]];portConstraint=eastwest;" parent="Y3e_ZOHxvSrWSQM1bqO8-3" vertex="1">
          <mxGeometry y="78" width="371.6494845360826" height="26" as="geometry" />
        </mxCell>
        <mxCell id="Y3e_ZOHxvSrWSQM1bqO8-23" value="+ controller_fornitore: FornitoreController&#xa;" style="text;strokeColor=none;fillColor=none;align=left;verticalAlign=top;spacingLeft=4;spacingRight=4;overflow=hidden;rotatable=0;points=[[0,0.5],[1,0.5]];portConstraint=eastwest;" parent="Y3e_ZOHxvSrWSQM1bqO8-3" vertex="1">
          <mxGeometry y="104" width="371.6494845360826" height="26" as="geometry" />
        </mxCell>
        <mxCell id="Y3e_ZOHxvSrWSQM1bqO8-25" value="+ controller_dipendente: DipendenteController&#xa;" style="text;strokeColor=none;fillColor=none;align=left;verticalAlign=top;spacingLeft=4;spacingRight=4;overflow=hidden;rotatable=0;points=[[0,0.5],[1,0.5]];portConstraint=eastwest;" parent="Y3e_ZOHxvSrWSQM1bqO8-3" vertex="1">
          <mxGeometry y="130" width="371.6494845360826" height="26" as="geometry" />
        </mxCell>
        <mxCell id="Y3e_ZOHxvSrWSQM1bqO8-5" value="" style="line;strokeWidth=1;fillColor=none;align=left;verticalAlign=middle;spacingTop=-1;spacingLeft=3;spacingRight=3;rotatable=0;labelPosition=right;points=[];portConstraint=eastwest;" parent="Y3e_ZOHxvSrWSQM1bqO8-3" vertex="1">
          <mxGeometry y="156" width="371.6494845360826" height="8" as="geometry" />
        </mxCell>
        <mxCell id="Y3e_ZOHxvSrWSQM1bqO8-6" value="+ connectAction(): void" style="text;strokeColor=none;fillColor=none;align=left;verticalAlign=top;spacingLeft=4;spacingRight=4;overflow=hidden;rotatable=0;points=[[0,0.5],[1,0.5]];portConstraint=eastwest;" parent="Y3e_ZOHxvSrWSQM1bqO8-3" vertex="1">
          <mxGeometry y="164" width="371.6494845360826" height="26" as="geometry" />
        </mxCell>
        <mxCell id="Y3e_ZOHxvSrWSQM1bqO8-7" value="+ add_cliente(): void" style="text;strokeColor=none;fillColor=none;align=left;verticalAlign=top;spacingLeft=4;spacingRight=4;overflow=hidden;rotatable=0;points=[[0,0.5],[1,0.5]];portConstraint=eastwest;" parent="Y3e_ZOHxvSrWSQM1bqO8-3" vertex="1">
          <mxGeometry y="190" width="371.6494845360826" height="26" as="geometry" />
        </mxCell>
        <mxCell id="Y3e_ZOHxvSrWSQM1bqO8-29" value="+ modifica_cliente(): void" style="text;strokeColor=none;fillColor=none;align=left;verticalAlign=top;spacingLeft=4;spacingRight=4;overflow=hidden;rotatable=0;points=[[0,0.5],[1,0.5]];portConstraint=eastwest;" parent="Y3e_ZOHxvSrWSQM1bqO8-3" vertex="1">
          <mxGeometry y="216" width="371.6494845360826" height="26" as="geometry" />
        </mxCell>
        <mxCell id="Y3e_ZOHxvSrWSQM1bqO8-10" value="+ elimina_cliente(): void" style="text;strokeColor=none;fillColor=none;align=left;verticalAlign=top;spacingLeft=4;spacingRight=4;overflow=hidden;rotatable=0;points=[[0,0.5],[1,0.5]];portConstraint=eastwest;" parent="Y3e_ZOHxvSrWSQM1bqO8-3" vertex="1">
          <mxGeometry y="242" width="371.6494845360826" height="26" as="geometry" />
        </mxCell>
        <mxCell id="Y3e_ZOHxvSrWSQM1bqO8-8" value="+ salva_cliente(): void" style="text;strokeColor=none;fillColor=none;align=left;verticalAlign=top;spacingLeft=4;spacingRight=4;overflow=hidden;rotatable=0;points=[[0,0.5],[1,0.5]];portConstraint=eastwest;" parent="Y3e_ZOHxvSrWSQM1bqO8-3" vertex="1">
          <mxGeometry y="268" width="371.6494845360826" height="26" as="geometry" />
        </mxCell>
        <mxCell id="Y3e_ZOHxvSrWSQM1bqO8-9" value="+ ricerca_cliente(): void" style="text;strokeColor=none;fillColor=none;align=left;verticalAlign=top;spacingLeft=4;spacingRight=4;overflow=hidden;rotatable=0;points=[[0,0.5],[1,0.5]];portConstraint=eastwest;" parent="Y3e_ZOHxvSrWSQM1bqO8-3" vertex="1">
          <mxGeometry y="294" width="371.6494845360826" height="26" as="geometry" />
        </mxCell>
        <mxCell id="Y3e_ZOHxvSrWSQM1bqO8-54" value="+ annula_cliente(): void" style="text;strokeColor=none;fillColor=none;align=left;verticalAlign=top;spacingLeft=4;spacingRight=4;overflow=hidden;rotatable=0;points=[[0,0.5],[1,0.5]];portConstraint=eastwest;" parent="Y3e_ZOHxvSrWSQM1bqO8-3" vertex="1">
          <mxGeometry y="320" width="371.6494845360826" height="26" as="geometry" />
        </mxCell>
        <mxCell id="Y3e_ZOHxvSrWSQM1bqO8-55" value="+ get_info_cliente_from_view(): tuple" style="text;strokeColor=none;fillColor=none;align=left;verticalAlign=top;spacingLeft=4;spacingRight=4;overflow=hidden;rotatable=0;points=[[0,0.5],[1,0.5]];portConstraint=eastwest;" parent="Y3e_ZOHxvSrWSQM1bqO8-3" vertex="1">
          <mxGeometry y="346" width="371.6494845360826" height="26" as="geometry" />
        </mxCell>
        <mxCell id="Y3e_ZOHxvSrWSQM1bqO8-12" value="+ add_dipendente(): void" style="text;strokeColor=none;fillColor=none;align=left;verticalAlign=top;spacingLeft=4;spacingRight=4;overflow=hidden;rotatable=0;points=[[0,0.5],[1,0.5]];portConstraint=eastwest;" parent="Y3e_ZOHxvSrWSQM1bqO8-3" vertex="1">
          <mxGeometry y="372" width="371.6494845360826" height="26" as="geometry" />
        </mxCell>
        <mxCell id="Y3e_ZOHxvSrWSQM1bqO8-13" value="+ modifica_dipendente(): void" style="text;strokeColor=none;fillColor=none;align=left;verticalAlign=top;spacingLeft=4;spacingRight=4;overflow=hidden;rotatable=0;points=[[0,0.5],[1,0.5]];portConstraint=eastwest;" parent="Y3e_ZOHxvSrWSQM1bqO8-3" vertex="1">
          <mxGeometry y="398" width="371.6494845360826" height="26" as="geometry" />
        </mxCell>
        <mxCell id="Y3e_ZOHxvSrWSQM1bqO8-15" value="+ elimina_dipendenti(): void" style="text;strokeColor=none;fillColor=none;align=left;verticalAlign=top;spacingLeft=4;spacingRight=4;overflow=hidden;rotatable=0;points=[[0,0.5],[1,0.5]];portConstraint=eastwest;" parent="Y3e_ZOHxvSrWSQM1bqO8-3" vertex="1">
          <mxGeometry y="424" width="371.6494845360826" height="26" as="geometry" />
        </mxCell>
        <mxCell id="Y3e_ZOHxvSrWSQM1bqO8-14" value="+ ricerca_dipendente(): void" style="text;strokeColor=none;fillColor=none;align=left;verticalAlign=top;spacingLeft=4;spacingRight=4;overflow=hidden;rotatable=0;points=[[0,0.5],[1,0.5]];portConstraint=eastwest;" parent="Y3e_ZOHxvSrWSQM1bqO8-3" vertex="1">
          <mxGeometry y="450" width="371.6494845360826" height="26" as="geometry" />
        </mxCell>
        <mxCell id="Y3e_ZOHxvSrWSQM1bqO8-56" value="+ salva_dipendente(): void" style="text;strokeColor=none;fillColor=none;align=left;verticalAlign=top;spacingLeft=4;spacingRight=4;overflow=hidden;rotatable=0;points=[[0,0.5],[1,0.5]];portConstraint=eastwest;" parent="Y3e_ZOHxvSrWSQM1bqO8-3" vertex="1">
          <mxGeometry y="476" width="371.6494845360826" height="26" as="geometry" />
        </mxCell>
        <mxCell id="Y3e_ZOHxvSrWSQM1bqO8-53" value="+ on_annula_dipendente_clicked(): void" style="text;strokeColor=none;fillColor=none;align=left;verticalAlign=top;spacingLeft=4;spacingRight=4;overflow=hidden;rotatable=0;points=[[0,0.5],[1,0.5]];portConstraint=eastwest;" parent="Y3e_ZOHxvSrWSQM1bqO8-3" vertex="1">
          <mxGeometry y="502" width="371.6494845360826" height="26" as="geometry" />
        </mxCell>
        <mxCell id="Y3e_ZOHxvSrWSQM1bqO8-57" value="+ annula_dipendente(): void" style="text;strokeColor=none;fillColor=none;align=left;verticalAlign=top;spacingLeft=4;spacingRight=4;overflow=hidden;rotatable=0;points=[[0,0.5],[1,0.5]];portConstraint=eastwest;" parent="Y3e_ZOHxvSrWSQM1bqO8-3" vertex="1">
          <mxGeometry y="528" width="371.6494845360826" height="26" as="geometry" />
        </mxCell>
        <mxCell id="Y3e_ZOHxvSrWSQM1bqO8-58" value="+ get_info_dipendente_from_view(): tuple" style="text;strokeColor=none;fillColor=none;align=left;verticalAlign=top;spacingLeft=4;spacingRight=4;overflow=hidden;rotatable=0;points=[[0,0.5],[1,0.5]];portConstraint=eastwest;" parent="Y3e_ZOHxvSrWSQM1bqO8-3" vertex="1">
          <mxGeometry y="554" width="371.6494845360826" height="26" as="geometry" />
        </mxCell>
        <mxCell id="Y3e_ZOHxvSrWSQM1bqO8-17" value="+ add_fornitore(): void" style="text;strokeColor=none;fillColor=none;align=left;verticalAlign=top;spacingLeft=4;spacingRight=4;overflow=hidden;rotatable=0;points=[[0,0.5],[1,0.5]];portConstraint=eastwest;" parent="Y3e_ZOHxvSrWSQM1bqO8-3" vertex="1">
          <mxGeometry y="580" width="371.6494845360826" height="26" as="geometry" />
        </mxCell>
        <mxCell id="Y3e_ZOHxvSrWSQM1bqO8-16" value="+ modifica_fornitore(): void" style="text;strokeColor=none;fillColor=none;align=left;verticalAlign=top;spacingLeft=4;spacingRight=4;overflow=hidden;rotatable=0;points=[[0,0.5],[1,0.5]];portConstraint=eastwest;" parent="Y3e_ZOHxvSrWSQM1bqO8-3" vertex="1">
          <mxGeometry y="606" width="371.6494845360826" height="26" as="geometry" />
        </mxCell>
        <mxCell id="Y3e_ZOHxvSrWSQM1bqO8-20" value="+ elimina_fornitori(): void" style="text;strokeColor=none;fillColor=none;align=left;verticalAlign=top;spacingLeft=4;spacingRight=4;overflow=hidden;rotatable=0;points=[[0,0.5],[1,0.5]];portConstraint=eastwest;" parent="Y3e_ZOHxvSrWSQM1bqO8-3" vertex="1">
          <mxGeometry y="632" width="371.6494845360826" height="26" as="geometry" />
        </mxCell>
        <mxCell id="Y3e_ZOHxvSrWSQM1bqO8-19" value="+ ricerca_fornitore(): void" style="text;strokeColor=none;fillColor=none;align=left;verticalAlign=top;spacingLeft=4;spacingRight=4;overflow=hidden;rotatable=0;points=[[0,0.5],[1,0.5]];portConstraint=eastwest;" parent="Y3e_ZOHxvSrWSQM1bqO8-3" vertex="1">
          <mxGeometry y="658" width="371.6494845360826" height="26" as="geometry" />
        </mxCell>
        <mxCell id="Y3e_ZOHxvSrWSQM1bqO8-18" value="+ salva_fornitore(): void" style="text;strokeColor=none;fillColor=none;align=left;verticalAlign=top;spacingLeft=4;spacingRight=4;overflow=hidden;rotatable=0;points=[[0,0.5],[1,0.5]];portConstraint=eastwest;" parent="Y3e_ZOHxvSrWSQM1bqO8-3" vertex="1">
          <mxGeometry y="684" width="371.6494845360826" height="26" as="geometry" />
        </mxCell>
        <mxCell id="Y3e_ZOHxvSrWSQM1bqO8-59" value="+ on_annula_fornitore_clicked(): void" style="text;strokeColor=none;fillColor=none;align=left;verticalAlign=top;spacingLeft=4;spacingRight=4;overflow=hidden;rotatable=0;points=[[0,0.5],[1,0.5]];portConstraint=eastwest;" parent="Y3e_ZOHxvSrWSQM1bqO8-3" vertex="1">
          <mxGeometry y="710" width="371.6494845360826" height="26" as="geometry" />
        </mxCell>
        <mxCell id="Y3e_ZOHxvSrWSQM1bqO8-60" value="+ annula_fornitore(): void" style="text;strokeColor=none;fillColor=none;align=left;verticalAlign=top;spacingLeft=4;spacingRight=4;overflow=hidden;rotatable=0;points=[[0,0.5],[1,0.5]];portConstraint=eastwest;" parent="Y3e_ZOHxvSrWSQM1bqO8-3" vertex="1">
          <mxGeometry y="736" width="371.6494845360826" height="26" as="geometry" />
        </mxCell>
        <mxCell id="Y3e_ZOHxvSrWSQM1bqO8-61" value="+ get_info_fornitore_from_view(): tuple" style="text;strokeColor=none;fillColor=none;align=left;verticalAlign=top;spacingLeft=4;spacingRight=4;overflow=hidden;rotatable=0;points=[[0,0.5],[1,0.5]];portConstraint=eastwest;" parent="Y3e_ZOHxvSrWSQM1bqO8-3" vertex="1">
          <mxGeometry y="762" width="371.6494845360826" height="26" as="geometry" />
        </mxCell>
        <mxCell id="Y3e_ZOHxvSrWSQM1bqO8-62" value="+ checkpB_to_enable(): void" style="text;strokeColor=none;fillColor=none;align=left;verticalAlign=top;spacingLeft=4;spacingRight=4;overflow=hidden;rotatable=0;points=[[0,0.5],[1,0.5]];portConstraint=eastwest;" parent="Y3e_ZOHxvSrWSQM1bqO8-3" vertex="1">
          <mxGeometry y="788" width="371.6494845360826" height="26" as="geometry" />
        </mxCell>
        <mxCell id="Y3e_ZOHxvSrWSQM1bqO8-63" value="+ enable_pB(QPushButton,QPushButton,QTableWidget): void" style="text;strokeColor=none;fillColor=none;align=left;verticalAlign=top;spacingLeft=4;spacingRight=4;overflow=hidden;rotatable=0;points=[[0,0.5],[1,0.5]];portConstraint=eastwest;" parent="Y3e_ZOHxvSrWSQM1bqO8-3" vertex="1">
          <mxGeometry y="814" width="371.6494845360826" height="26" as="geometry" />
        </mxCell>
        <mxCell id="Y3e_ZOHxvSrWSQM1bqO8-64" value="+ aggiornaTabelle(QTableWidget, list): void" style="text;strokeColor=none;fillColor=none;align=left;verticalAlign=top;spacingLeft=4;spacingRight=4;overflow=hidden;rotatable=0;points=[[0,0.5],[1,0.5]];portConstraint=eastwest;" parent="Y3e_ZOHxvSrWSQM1bqO8-3" vertex="1">
          <mxGeometry y="840" width="371.6494845360826" height="26" as="geometry" />
        </mxCell>
        <mxCell id="Y3e_ZOHxvSrWSQM1bqO8-65" value="+ get_item(info): void" style="text;strokeColor=none;fillColor=none;align=left;verticalAlign=top;spacingLeft=4;spacingRight=4;overflow=hidden;rotatable=0;points=[[0,0.5],[1,0.5]];portConstraint=eastwest;" parent="Y3e_ZOHxvSrWSQM1bqO8-3" vertex="1">
          <mxGeometry y="866" width="371.6494845360826" height="26" as="geometry" />
        </mxCell>
        <mxCell id="Y3e_ZOHxvSrWSQM1bqO8-66" value="+ check_dipendente(): void" style="text;strokeColor=none;fillColor=none;align=left;verticalAlign=top;spacingLeft=4;spacingRight=4;overflow=hidden;rotatable=0;points=[[0,0.5],[1,0.5]];portConstraint=eastwest;" parent="Y3e_ZOHxvSrWSQM1bqO8-3" vertex="1">
          <mxGeometry y="892" width="371.6494845360826" height="26" as="geometry" />
        </mxCell>
        <mxCell id="Y3e_ZOHxvSrWSQM1bqO8-67" value="+ stampaPDF(list, str): void" style="text;strokeColor=none;fillColor=none;align=left;verticalAlign=top;spacingLeft=4;spacingRight=4;overflow=hidden;rotatable=0;points=[[0,0.5],[1,0.5]];portConstraint=eastwest;" parent="Y3e_ZOHxvSrWSQM1bqO8-3" vertex="1">
          <mxGeometry y="918" width="371.6494845360826" height="26" as="geometry" />
        </mxCell>
        <mxCell id="Y3e_ZOHxvSrWSQM1bqO8-108" value="RicercaAnagraficheView" style="swimlane;fontStyle=1;align=center;verticalAlign=top;childLayout=stackLayout;horizontal=1;startSize=26;horizontalStack=0;resizeParent=1;resizeParentMax=0;resizeLast=0;collapsible=1;marginBottom=0;" parent="KJCioZVpsJPs6qXIDCtf-0" vertex="1">
          <mxGeometry x="453.57896226415096" y="310" width="226.6097169811321" height="294" as="geometry">
            <mxRectangle x="460.72" y="56" width="170" height="26" as="alternateBounds" />
          </mxGeometry>
        </mxCell>
        <mxCell id="Y3e_ZOHxvSrWSQM1bqO8-109" value="+ controller: AnagraficheController&#xa;" style="text;strokeColor=none;fillColor=none;align=left;verticalAlign=top;spacingLeft=4;spacingRight=4;overflow=hidden;rotatable=0;points=[[0,0.5],[1,0.5]];portConstraint=eastwest;" parent="Y3e_ZOHxvSrWSQM1bqO8-108" vertex="1">
          <mxGeometry y="26" width="226.6097169811321" height="26" as="geometry" />
        </mxCell>
        <mxCell id="Y3e_ZOHxvSrWSQM1bqO8-110" value="+ callback: AnagraficheView&#xa;" style="text;strokeColor=none;fillColor=none;align=left;verticalAlign=top;spacingLeft=4;spacingRight=4;overflow=hidden;rotatable=0;points=[[0,0.5],[1,0.5]];portConstraint=eastwest;" parent="Y3e_ZOHxvSrWSQM1bqO8-108" vertex="1">
          <mxGeometry y="52" width="226.6097169811321" height="26" as="geometry" />
        </mxCell>
        <mxCell id="Y3e_ZOHxvSrWSQM1bqO8-111" value="+ table: QTableWidget" style="text;strokeColor=none;fillColor=none;align=left;verticalAlign=top;spacingLeft=4;spacingRight=4;overflow=hidden;rotatable=0;points=[[0,0.5],[1,0.5]];portConstraint=eastwest;" parent="Y3e_ZOHxvSrWSQM1bqO8-108" vertex="1">
          <mxGeometry y="78" width="226.6097169811321" height="26" as="geometry" />
        </mxCell>
        <mxCell id="Y3e_ZOHxvSrWSQM1bqO8-112" value="+ buttons: list&#xa;" style="text;strokeColor=none;fillColor=none;align=left;verticalAlign=top;spacingLeft=4;spacingRight=4;overflow=hidden;rotatable=0;points=[[0,0.5],[1,0.5]];portConstraint=eastwest;" parent="Y3e_ZOHxvSrWSQM1bqO8-108" vertex="1">
          <mxGeometry y="104" width="226.6097169811321" height="26" as="geometry" />
        </mxCell>
        <mxCell id="Y3e_ZOHxvSrWSQM1bqO8-114" value="" style="line;strokeWidth=1;fillColor=none;align=left;verticalAlign=middle;spacingTop=-1;spacingLeft=3;spacingRight=3;rotatable=0;labelPosition=right;points=[];portConstraint=eastwest;" parent="Y3e_ZOHxvSrWSQM1bqO8-108" vertex="1">
          <mxGeometry y="130" width="226.6097169811321" height="8" as="geometry" />
        </mxCell>
        <mxCell id="Y3e_ZOHxvSrWSQM1bqO8-115" value="+ ricerca_cliente(): void" style="text;strokeColor=none;fillColor=none;align=left;verticalAlign=top;spacingLeft=4;spacingRight=4;overflow=hidden;rotatable=0;points=[[0,0.5],[1,0.5]];portConstraint=eastwest;" parent="Y3e_ZOHxvSrWSQM1bqO8-108" vertex="1">
          <mxGeometry y="138" width="226.6097169811321" height="26" as="geometry" />
        </mxCell>
        <mxCell id="Y3e_ZOHxvSrWSQM1bqO8-116" value="+ ricerca_dipendente(): void" style="text;strokeColor=none;fillColor=none;align=left;verticalAlign=top;spacingLeft=4;spacingRight=4;overflow=hidden;rotatable=0;points=[[0,0.5],[1,0.5]];portConstraint=eastwest;" parent="Y3e_ZOHxvSrWSQM1bqO8-108" vertex="1">
          <mxGeometry y="164" width="226.6097169811321" height="26" as="geometry" />
        </mxCell>
        <mxCell id="Y3e_ZOHxvSrWSQM1bqO8-117" value="+ ricerca_fornitore(): void" style="text;strokeColor=none;fillColor=none;align=left;verticalAlign=top;spacingLeft=4;spacingRight=4;overflow=hidden;rotatable=0;points=[[0,0.5],[1,0.5]];portConstraint=eastwest;" parent="Y3e_ZOHxvSrWSQM1bqO8-108" vertex="1">
          <mxGeometry y="190" width="226.6097169811321" height="26" as="geometry" />
        </mxCell>
        <mxCell id="Y3e_ZOHxvSrWSQM1bqO8-118" value="+ on_ricercacliked(list): void" style="text;strokeColor=none;fillColor=none;align=left;verticalAlign=top;spacingLeft=4;spacingRight=4;overflow=hidden;rotatable=0;points=[[0,0.5],[1,0.5]];portConstraint=eastwest;" parent="Y3e_ZOHxvSrWSQM1bqO8-108" vertex="1">
          <mxGeometry y="216" width="226.6097169811321" height="26" as="geometry" />
        </mxCell>
        <mxCell id="Y3e_ZOHxvSrWSQM1bqO8-119" value="+ on_annullacliked(list): void" style="text;strokeColor=none;fillColor=none;align=left;verticalAlign=top;spacingLeft=4;spacingRight=4;overflow=hidden;rotatable=0;points=[[0,0.5],[1,0.5]];portConstraint=eastwest;" parent="Y3e_ZOHxvSrWSQM1bqO8-108" vertex="1">
          <mxGeometry y="242" width="226.6097169811321" height="26" as="geometry" />
        </mxCell>
        <mxCell id="1v4FfqMV88ZLi4CApeXI-76" value="+ on_text_changed(): void" style="text;strokeColor=none;fillColor=none;align=left;verticalAlign=top;spacingLeft=4;spacingRight=4;overflow=hidden;rotatable=0;points=[[0,0.5],[1,0.5]];portConstraint=eastwest;" parent="Y3e_ZOHxvSrWSQM1bqO8-108" vertex="1">
          <mxGeometry y="268" width="226.6097169811321" height="26" as="geometry" />
        </mxCell>
        <mxCell id="1v4FfqMV88ZLi4CApeXI-3" value="Ui_AnagraficheView" style="swimlane;fontStyle=1;align=center;verticalAlign=top;childLayout=stackLayout;horizontal=1;startSize=26;horizontalStack=0;resizeParent=1;resizeParentMax=0;resizeLast=0;collapsible=1;marginBottom=0;" parent="KJCioZVpsJPs6qXIDCtf-0" vertex="1">
          <mxGeometry x="93.5599082568807" y="50" width="216.65908256880738" height="164" as="geometry" />
        </mxCell>
        <mxCell id="1v4FfqMV88ZLi4CApeXI-8" value="" style="line;strokeWidth=1;fillColor=none;align=left;verticalAlign=middle;spacingTop=-1;spacingLeft=3;spacingRight=3;rotatable=0;labelPosition=right;points=[];portConstraint=eastwest;" parent="1v4FfqMV88ZLi4CApeXI-3" vertex="1">
          <mxGeometry y="26" width="216.65908256880738" height="8" as="geometry" />
        </mxCell>
        <mxCell id="1v4FfqMV88ZLi4CApeXI-9" value="+ setupUi(AnagraficheView): void" style="text;strokeColor=none;fillColor=none;align=left;verticalAlign=top;spacingLeft=4;spacingRight=4;overflow=hidden;rotatable=0;points=[[0,0.5],[1,0.5]];portConstraint=eastwest;" parent="1v4FfqMV88ZLi4CApeXI-3" vertex="1">
          <mxGeometry y="34" width="216.65908256880738" height="26" as="geometry" />
        </mxCell>
        <mxCell id="1v4FfqMV88ZLi4CApeXI-72" value="+ labelFont(QLabel): void" style="text;strokeColor=none;fillColor=none;align=left;verticalAlign=top;spacingLeft=4;spacingRight=4;overflow=hidden;rotatable=0;points=[[0,0.5],[1,0.5]];portConstraint=eastwest;" parent="1v4FfqMV88ZLi4CApeXI-3" vertex="1">
          <mxGeometry y="60" width="216.65908256880738" height="26" as="geometry" />
        </mxCell>
        <mxCell id="1v4FfqMV88ZLi4CApeXI-73" value="+ buttonFont(QPushButton): void" style="text;strokeColor=none;fillColor=none;align=left;verticalAlign=top;spacingLeft=4;spacingRight=4;overflow=hidden;rotatable=0;points=[[0,0.5],[1,0.5]];portConstraint=eastwest;" parent="1v4FfqMV88ZLi4CApeXI-3" vertex="1">
          <mxGeometry y="86" width="216.65908256880738" height="26" as="geometry" />
        </mxCell>
        <mxCell id="1v4FfqMV88ZLi4CApeXI-74" value="+ tableFont(QTableWidget): void" style="text;strokeColor=none;fillColor=none;align=left;verticalAlign=top;spacingLeft=4;spacingRight=4;overflow=hidden;rotatable=0;points=[[0,0.5],[1,0.5]];portConstraint=eastwest;" parent="1v4FfqMV88ZLi4CApeXI-3" vertex="1">
          <mxGeometry y="112" width="216.65908256880738" height="26" as="geometry" />
        </mxCell>
        <mxCell id="1v4FfqMV88ZLi4CApeXI-75" value="+ retranslateUi(AnagraficheView): void" style="text;strokeColor=none;fillColor=none;align=left;verticalAlign=top;spacingLeft=4;spacingRight=4;overflow=hidden;rotatable=0;points=[[0,0.5],[1,0.5]];portConstraint=eastwest;" parent="1v4FfqMV88ZLi4CApeXI-3" vertex="1">
          <mxGeometry y="138" width="216.65908256880738" height="26" as="geometry" />
        </mxCell>
        <mxCell id="1v4FfqMV88ZLi4CApeXI-81" style="edgeStyle=orthogonalEdgeStyle;rounded=0;orthogonalLoop=1;jettySize=auto;html=1;exitX=0.5;exitY=0;exitDx=0;exitDy=0;entryX=0.5;entryY=1;entryDx=0;entryDy=0;startArrow=none;startFill=0;endArrow=block;endFill=0;" parent="KJCioZVpsJPs6qXIDCtf-0" source="Y3e_ZOHxvSrWSQM1bqO8-3" target="1v4FfqMV88ZLi4CApeXI-3" edge="1">
          <mxGeometry as="geometry" />
        </mxCell>
        <mxCell id="1v4FfqMV88ZLi4CApeXI-68" value="Ui_RicercaAnagraficheView" style="swimlane;fontStyle=1;align=center;verticalAlign=top;childLayout=stackLayout;horizontal=1;startSize=26;horizontalStack=0;resizeParent=1;resizeParentMax=0;resizeLast=0;collapsible=1;marginBottom=0;" parent="KJCioZVpsJPs6qXIDCtf-0" vertex="1">
          <mxGeometry x="453.57896226415096" y="102" width="226.6097169811321" height="112" as="geometry" />
        </mxCell>
        <mxCell id="1v4FfqMV88ZLi4CApeXI-69" value="" style="line;strokeWidth=1;fillColor=none;align=left;verticalAlign=middle;spacingTop=-1;spacingLeft=3;spacingRight=3;rotatable=0;labelPosition=right;points=[];portConstraint=eastwest;" parent="1v4FfqMV88ZLi4CApeXI-68" vertex="1">
          <mxGeometry y="26" width="226.6097169811321" height="8" as="geometry" />
        </mxCell>
        <mxCell id="1v4FfqMV88ZLi4CApeXI-70" value="+ setupUi(RicercaAnagraficheView): void" style="text;strokeColor=none;fillColor=none;align=left;verticalAlign=top;spacingLeft=4;spacingRight=4;overflow=hidden;rotatable=0;points=[[0,0.5],[1,0.5]];portConstraint=eastwest;" parent="1v4FfqMV88ZLi4CApeXI-68" vertex="1">
          <mxGeometry y="34" width="226.6097169811321" height="26" as="geometry" />
        </mxCell>
        <mxCell id="1v4FfqMV88ZLi4CApeXI-77" value="+ set_cB(QComboBox): void" style="text;strokeColor=none;fillColor=none;align=left;verticalAlign=top;spacingLeft=4;spacingRight=4;overflow=hidden;rotatable=0;points=[[0,0.5],[1,0.5]];portConstraint=eastwest;" parent="1v4FfqMV88ZLi4CApeXI-68" vertex="1">
          <mxGeometry y="60" width="226.6097169811321" height="26" as="geometry" />
        </mxCell>
        <mxCell id="1v4FfqMV88ZLi4CApeXI-78" value="+ retranslateUi(AnagraficheView): void" style="text;strokeColor=none;fillColor=none;align=left;verticalAlign=top;spacingLeft=4;spacingRight=4;overflow=hidden;rotatable=0;points=[[0,0.5],[1,0.5]];portConstraint=eastwest;" parent="1v4FfqMV88ZLi4CApeXI-68" vertex="1">
          <mxGeometry y="86" width="226.6097169811321" height="26" as="geometry" />
        </mxCell>
        <mxCell id="1v4FfqMV88ZLi4CApeXI-84" style="edgeStyle=orthogonalEdgeStyle;rounded=0;orthogonalLoop=1;jettySize=auto;html=1;exitX=0.5;exitY=0;exitDx=0;exitDy=0;entryX=0.499;entryY=1;entryDx=0;entryDy=0;entryPerimeter=0;startArrow=none;startFill=0;endArrow=block;endFill=0;" parent="KJCioZVpsJPs6qXIDCtf-0" source="Y3e_ZOHxvSrWSQM1bqO8-108" target="1v4FfqMV88ZLi4CApeXI-78" edge="1">
          <mxGeometry as="geometry" />
        </mxCell>
        <mxCell id="KJCioZVpsJPs6qXIDCtf-1" value="" style="group" vertex="1" connectable="0" parent="KJCioZVpsJPs6qXIDCtf-15">
          <mxGeometry x="420" y="50" width="330" height="530" as="geometry" />
        </mxCell>
        <mxCell id="J4wgWrxB4ma67eAixFHz-67" value="" style="shape=folder;fontStyle=1;spacingTop=10;tabWidth=120;tabHeight=30;tabPosition=left;html=1;fillColor=#fff2cc;gradientColor=#ffd966;strokeColor=#d6b656;" parent="KJCioZVpsJPs6qXIDCtf-1" vertex="1">
          <mxGeometry width="330" height="530" as="geometry" />
        </mxCell>
        <mxCell id="J4wgWrxB4ma67eAixFHz-68" value="&lt;span style=&quot;font-size: 18px&quot;&gt;&lt;b&gt;controller&lt;/b&gt;&lt;/span&gt;" style="text;html=1;strokeColor=none;fillColor=none;align=center;verticalAlign=middle;whiteSpace=wrap;rounded=0;" parent="KJCioZVpsJPs6qXIDCtf-1" vertex="1">
          <mxGeometry width="120" height="30" as="geometry" />
        </mxCell>
        <mxCell id="J4wgWrxB4ma67eAixFHz-41" value="AnagraficheController" style="swimlane;fontStyle=1;align=center;verticalAlign=top;childLayout=stackLayout;horizontal=1;startSize=26;horizontalStack=0;resizeParent=1;resizeParentMax=0;resizeLast=0;collapsible=1;marginBottom=0;" parent="KJCioZVpsJPs6qXIDCtf-1" vertex="1">
          <mxGeometry x="39.5" y="50" width="251" height="450" as="geometry" />
        </mxCell>
        <mxCell id="J4wgWrxB4ma67eAixFHz-42" value="+ model: AnagraficheModel" style="text;strokeColor=none;fillColor=none;align=left;verticalAlign=top;spacingLeft=4;spacingRight=4;overflow=hidden;rotatable=0;points=[[0,0.5],[1,0.5]];portConstraint=eastwest;" parent="J4wgWrxB4ma67eAixFHz-41" vertex="1">
          <mxGeometry y="26" width="251" height="26" as="geometry" />
        </mxCell>
        <mxCell id="J4wgWrxB4ma67eAixFHz-46" value="" style="line;strokeWidth=1;fillColor=none;align=left;verticalAlign=middle;spacingTop=-1;spacingLeft=3;spacingRight=3;rotatable=0;labelPosition=right;points=[];portConstraint=eastwest;" parent="J4wgWrxB4ma67eAixFHz-41" vertex="1">
          <mxGeometry y="52" width="251" height="8" as="geometry" />
        </mxCell>
        <mxCell id="J4wgWrxB4ma67eAixFHz-47" value="+ get_listaclienti(): list" style="text;strokeColor=none;fillColor=none;align=left;verticalAlign=top;spacingLeft=4;spacingRight=4;overflow=hidden;rotatable=0;points=[[0,0.5],[1,0.5]];portConstraint=eastwest;" parent="J4wgWrxB4ma67eAixFHz-41" vertex="1">
          <mxGeometry y="60" width="251" height="26" as="geometry" />
        </mxCell>
        <mxCell id="J4wgWrxB4ma67eAixFHz-48" value="+ add_cliente(ClienteModel): void" style="text;strokeColor=none;fillColor=none;align=left;verticalAlign=top;spacingLeft=4;spacingRight=4;overflow=hidden;rotatable=0;points=[[0,0.5],[1,0.5]];portConstraint=eastwest;" parent="J4wgWrxB4ma67eAixFHz-41" vertex="1">
          <mxGeometry y="86" width="251" height="26" as="geometry" />
        </mxCell>
        <mxCell id="J4wgWrxB4ma67eAixFHz-49" value="+ salva_cliente(ClienteModel): void" style="text;strokeColor=none;fillColor=none;align=left;verticalAlign=top;spacingLeft=4;spacingRight=4;overflow=hidden;rotatable=0;points=[[0,0.5],[1,0.5]];portConstraint=eastwest;" parent="J4wgWrxB4ma67eAixFHz-41" vertex="1">
          <mxGeometry y="112" width="251" height="26" as="geometry" />
        </mxCell>
        <mxCell id="J4wgWrxB4ma67eAixFHz-50" value="+ ricerca_cliente(list): list" style="text;strokeColor=none;fillColor=none;align=left;verticalAlign=top;spacingLeft=4;spacingRight=4;overflow=hidden;rotatable=0;points=[[0,0.5],[1,0.5]];portConstraint=eastwest;" parent="J4wgWrxB4ma67eAixFHz-41" vertex="1">
          <mxGeometry y="138" width="251" height="26" as="geometry" />
        </mxCell>
        <mxCell id="J4wgWrxB4ma67eAixFHz-51" value="+ elimina_clienti(list): void" style="text;strokeColor=none;fillColor=none;align=left;verticalAlign=top;spacingLeft=4;spacingRight=4;overflow=hidden;rotatable=0;points=[[0,0.5],[1,0.5]];portConstraint=eastwest;" parent="J4wgWrxB4ma67eAixFHz-41" vertex="1">
          <mxGeometry y="164" width="251" height="26" as="geometry" />
        </mxCell>
        <mxCell id="J4wgWrxB4ma67eAixFHz-52" value="+ get_listadipendenti(): list" style="text;strokeColor=none;fillColor=none;align=left;verticalAlign=top;spacingLeft=4;spacingRight=4;overflow=hidden;rotatable=0;points=[[0,0.5],[1,0.5]];portConstraint=eastwest;" parent="J4wgWrxB4ma67eAixFHz-41" vertex="1">
          <mxGeometry y="190" width="251" height="26" as="geometry" />
        </mxCell>
        <mxCell id="J4wgWrxB4ma67eAixFHz-53" value="+ add_dipendente(DipendenteModel): void" style="text;strokeColor=none;fillColor=none;align=left;verticalAlign=top;spacingLeft=4;spacingRight=4;overflow=hidden;rotatable=0;points=[[0,0.5],[1,0.5]];portConstraint=eastwest;" parent="J4wgWrxB4ma67eAixFHz-41" vertex="1">
          <mxGeometry y="216" width="251" height="26" as="geometry" />
        </mxCell>
        <mxCell id="J4wgWrxB4ma67eAixFHz-54" value="+ salva_dipendente(DipendenteModel): void" style="text;strokeColor=none;fillColor=none;align=left;verticalAlign=top;spacingLeft=4;spacingRight=4;overflow=hidden;rotatable=0;points=[[0,0.5],[1,0.5]];portConstraint=eastwest;" parent="J4wgWrxB4ma67eAixFHz-41" vertex="1">
          <mxGeometry y="242" width="251" height="26" as="geometry" />
        </mxCell>
        <mxCell id="J4wgWrxB4ma67eAixFHz-55" value="+ ricerca_dipendente(list): list" style="text;strokeColor=none;fillColor=none;align=left;verticalAlign=top;spacingLeft=4;spacingRight=4;overflow=hidden;rotatable=0;points=[[0,0.5],[1,0.5]];portConstraint=eastwest;" parent="J4wgWrxB4ma67eAixFHz-41" vertex="1">
          <mxGeometry y="268" width="251" height="26" as="geometry" />
        </mxCell>
        <mxCell id="J4wgWrxB4ma67eAixFHz-56" value="+ elimina_dipendenti(list): void" style="text;strokeColor=none;fillColor=none;align=left;verticalAlign=top;spacingLeft=4;spacingRight=4;overflow=hidden;rotatable=0;points=[[0,0.5],[1,0.5]];portConstraint=eastwest;" parent="J4wgWrxB4ma67eAixFHz-41" vertex="1">
          <mxGeometry y="294" width="251" height="26" as="geometry" />
        </mxCell>
        <mxCell id="J4wgWrxB4ma67eAixFHz-57" value="+ get_listafornitori(): void" style="text;strokeColor=none;fillColor=none;align=left;verticalAlign=top;spacingLeft=4;spacingRight=4;overflow=hidden;rotatable=0;points=[[0,0.5],[1,0.5]];portConstraint=eastwest;" parent="J4wgWrxB4ma67eAixFHz-41" vertex="1">
          <mxGeometry y="320" width="251" height="26" as="geometry" />
        </mxCell>
        <mxCell id="J4wgWrxB4ma67eAixFHz-58" value="+ add_fornitore(FornitoreModel): void" style="text;strokeColor=none;fillColor=none;align=left;verticalAlign=top;spacingLeft=4;spacingRight=4;overflow=hidden;rotatable=0;points=[[0,0.5],[1,0.5]];portConstraint=eastwest;" parent="J4wgWrxB4ma67eAixFHz-41" vertex="1">
          <mxGeometry y="346" width="251" height="26" as="geometry" />
        </mxCell>
        <mxCell id="J4wgWrxB4ma67eAixFHz-59" value="+ salva_fornitore(FornitoreModel): void" style="text;strokeColor=none;fillColor=none;align=left;verticalAlign=top;spacingLeft=4;spacingRight=4;overflow=hidden;rotatable=0;points=[[0,0.5],[1,0.5]];portConstraint=eastwest;" parent="J4wgWrxB4ma67eAixFHz-41" vertex="1">
          <mxGeometry y="372" width="251" height="26" as="geometry" />
        </mxCell>
        <mxCell id="J4wgWrxB4ma67eAixFHz-60" value="+ ricerca_fornitore(list): list" style="text;strokeColor=none;fillColor=none;align=left;verticalAlign=top;spacingLeft=4;spacingRight=4;overflow=hidden;rotatable=0;points=[[0,0.5],[1,0.5]];portConstraint=eastwest;" parent="J4wgWrxB4ma67eAixFHz-41" vertex="1">
          <mxGeometry y="398" width="251" height="26" as="geometry" />
        </mxCell>
        <mxCell id="J4wgWrxB4ma67eAixFHz-61" value="+ elimina_fornitori(list): void" style="text;strokeColor=none;fillColor=none;align=left;verticalAlign=top;spacingLeft=4;spacingRight=4;overflow=hidden;rotatable=0;points=[[0,0.5],[1,0.5]];portConstraint=eastwest;" parent="J4wgWrxB4ma67eAixFHz-41" vertex="1">
          <mxGeometry y="424" width="251" height="26" as="geometry" />
        </mxCell>
        <mxCell id="KJCioZVpsJPs6qXIDCtf-2" value="" style="group" vertex="1" connectable="0" parent="KJCioZVpsJPs6qXIDCtf-15">
          <mxGeometry x="50" y="50" width="330" height="610" as="geometry" />
        </mxCell>
        <mxCell id="J4wgWrxB4ma67eAixFHz-64" value="" style="shape=folder;fontStyle=1;spacingTop=10;tabWidth=120;tabHeight=30;tabPosition=left;html=1;fillColor=#f8cecc;gradientColor=#ea6b66;strokeColor=#b85450;" parent="KJCioZVpsJPs6qXIDCtf-2" vertex="1">
          <mxGeometry width="330" height="610" as="geometry" />
        </mxCell>
        <mxCell id="J4wgWrxB4ma67eAixFHz-65" value="&lt;font style=&quot;font-size: 18px&quot;&gt;&lt;b&gt;model&lt;/b&gt;&lt;/font&gt;" style="text;html=1;strokeColor=none;fillColor=none;align=center;verticalAlign=middle;whiteSpace=wrap;rounded=0;" parent="KJCioZVpsJPs6qXIDCtf-2" vertex="1">
          <mxGeometry width="120" height="30" as="geometry" />
        </mxCell>
        <mxCell id="J4wgWrxB4ma67eAixFHz-11" value="AnagraficheModel" style="swimlane;fontStyle=1;align=center;verticalAlign=top;childLayout=stackLayout;horizontal=1;startSize=26;horizontalStack=0;resizeParent=1;resizeParentMax=0;resizeLast=0;collapsible=1;marginBottom=0;" parent="KJCioZVpsJPs6qXIDCtf-2" vertex="1">
          <mxGeometry x="39.5" y="60" width="251" height="528" as="geometry" />
        </mxCell>
        <mxCell id="J4wgWrxB4ma67eAixFHz-12" value="+ db: Connection" style="text;strokeColor=none;fillColor=none;align=left;verticalAlign=top;spacingLeft=4;spacingRight=4;overflow=hidden;rotatable=0;points=[[0,0.5],[1,0.5]];portConstraint=eastwest;" parent="J4wgWrxB4ma67eAixFHz-11" vertex="1">
          <mxGeometry y="26" width="251" height="26" as="geometry" />
        </mxCell>
        <mxCell id="J4wgWrxB4ma67eAixFHz-15" value="+ listaclienti: list" style="text;strokeColor=none;fillColor=none;align=left;verticalAlign=top;spacingLeft=4;spacingRight=4;overflow=hidden;rotatable=0;points=[[0,0.5],[1,0.5]];portConstraint=eastwest;" parent="J4wgWrxB4ma67eAixFHz-11" vertex="1">
          <mxGeometry y="52" width="251" height="26" as="geometry" />
        </mxCell>
        <mxCell id="J4wgWrxB4ma67eAixFHz-7" value="+ listafornitori: list" style="text;strokeColor=none;fillColor=none;align=left;verticalAlign=top;spacingLeft=4;spacingRight=4;overflow=hidden;rotatable=0;points=[[0,0.5],[1,0.5]];portConstraint=eastwest;" parent="J4wgWrxB4ma67eAixFHz-11" vertex="1">
          <mxGeometry y="78" width="251" height="26" as="geometry" />
        </mxCell>
        <mxCell id="J4wgWrxB4ma67eAixFHz-9" value="+ listadipendenti: list" style="text;strokeColor=none;fillColor=none;align=left;verticalAlign=top;spacingLeft=4;spacingRight=4;overflow=hidden;rotatable=0;points=[[0,0.5],[1,0.5]];portConstraint=eastwest;" parent="J4wgWrxB4ma67eAixFHz-11" vertex="1">
          <mxGeometry y="104" width="251" height="26" as="geometry" />
        </mxCell>
        <mxCell id="J4wgWrxB4ma67eAixFHz-13" value="" style="line;strokeWidth=1;fillColor=none;align=left;verticalAlign=middle;spacingTop=-1;spacingLeft=3;spacingRight=3;rotatable=0;labelPosition=right;points=[];portConstraint=eastwest;" parent="J4wgWrxB4ma67eAixFHz-11" vertex="1">
          <mxGeometry y="130" width="251" height="8" as="geometry" />
        </mxCell>
        <mxCell id="J4wgWrxB4ma67eAixFHz-14" value="+ update_listaclienti(): void" style="text;strokeColor=none;fillColor=none;align=left;verticalAlign=top;spacingLeft=4;spacingRight=4;overflow=hidden;rotatable=0;points=[[0,0.5],[1,0.5]];portConstraint=eastwest;" parent="J4wgWrxB4ma67eAixFHz-11" vertex="1">
          <mxGeometry y="138" width="251" height="26" as="geometry" />
        </mxCell>
        <mxCell id="J4wgWrxB4ma67eAixFHz-17" value="+ add_cliente(ClienteModel): void" style="text;strokeColor=none;fillColor=none;align=left;verticalAlign=top;spacingLeft=4;spacingRight=4;overflow=hidden;rotatable=0;points=[[0,0.5],[1,0.5]];portConstraint=eastwest;" parent="J4wgWrxB4ma67eAixFHz-11" vertex="1">
          <mxGeometry y="164" width="251" height="26" as="geometry" />
        </mxCell>
        <mxCell id="J4wgWrxB4ma67eAixFHz-18" value="+ salva_cliente(ClienteModel): void" style="text;strokeColor=none;fillColor=none;align=left;verticalAlign=top;spacingLeft=4;spacingRight=4;overflow=hidden;rotatable=0;points=[[0,0.5],[1,0.5]];portConstraint=eastwest;" parent="J4wgWrxB4ma67eAixFHz-11" vertex="1">
          <mxGeometry y="190" width="251" height="26" as="geometry" />
        </mxCell>
        <mxCell id="J4wgWrxB4ma67eAixFHz-19" value="+ ricerca_cliente(list): list" style="text;strokeColor=none;fillColor=none;align=left;verticalAlign=top;spacingLeft=4;spacingRight=4;overflow=hidden;rotatable=0;points=[[0,0.5],[1,0.5]];portConstraint=eastwest;" parent="J4wgWrxB4ma67eAixFHz-11" vertex="1">
          <mxGeometry y="216" width="251" height="26" as="geometry" />
        </mxCell>
        <mxCell id="J4wgWrxB4ma67eAixFHz-20" value="+ elimina_clienti(list): void" style="text;strokeColor=none;fillColor=none;align=left;verticalAlign=top;spacingLeft=4;spacingRight=4;overflow=hidden;rotatable=0;points=[[0,0.5],[1,0.5]];portConstraint=eastwest;" parent="J4wgWrxB4ma67eAixFHz-11" vertex="1">
          <mxGeometry y="242" width="251" height="26" as="geometry" />
        </mxCell>
        <mxCell id="J4wgWrxB4ma67eAixFHz-22" value="+ update_listadipendenti(): void" style="text;strokeColor=none;fillColor=none;align=left;verticalAlign=top;spacingLeft=4;spacingRight=4;overflow=hidden;rotatable=0;points=[[0,0.5],[1,0.5]];portConstraint=eastwest;" parent="J4wgWrxB4ma67eAixFHz-11" vertex="1">
          <mxGeometry y="268" width="251" height="26" as="geometry" />
        </mxCell>
        <mxCell id="J4wgWrxB4ma67eAixFHz-23" value="+ add_dipendente(DipendenteModel): void" style="text;strokeColor=none;fillColor=none;align=left;verticalAlign=top;spacingLeft=4;spacingRight=4;overflow=hidden;rotatable=0;points=[[0,0.5],[1,0.5]];portConstraint=eastwest;" parent="J4wgWrxB4ma67eAixFHz-11" vertex="1">
          <mxGeometry y="294" width="251" height="26" as="geometry" />
        </mxCell>
        <mxCell id="J4wgWrxB4ma67eAixFHz-24" value="+ salva_dipendente(DipendenteModel): void" style="text;strokeColor=none;fillColor=none;align=left;verticalAlign=top;spacingLeft=4;spacingRight=4;overflow=hidden;rotatable=0;points=[[0,0.5],[1,0.5]];portConstraint=eastwest;" parent="J4wgWrxB4ma67eAixFHz-11" vertex="1">
          <mxGeometry y="320" width="251" height="26" as="geometry" />
        </mxCell>
        <mxCell id="J4wgWrxB4ma67eAixFHz-25" value="+ ricerca_dipendente(list): list" style="text;strokeColor=none;fillColor=none;align=left;verticalAlign=top;spacingLeft=4;spacingRight=4;overflow=hidden;rotatable=0;points=[[0,0.5],[1,0.5]];portConstraint=eastwest;" parent="J4wgWrxB4ma67eAixFHz-11" vertex="1">
          <mxGeometry y="346" width="251" height="26" as="geometry" />
        </mxCell>
        <mxCell id="J4wgWrxB4ma67eAixFHz-26" value="+ elimina_dipendenti(list): void" style="text;strokeColor=none;fillColor=none;align=left;verticalAlign=top;spacingLeft=4;spacingRight=4;overflow=hidden;rotatable=0;points=[[0,0.5],[1,0.5]];portConstraint=eastwest;" parent="J4wgWrxB4ma67eAixFHz-11" vertex="1">
          <mxGeometry y="372" width="251" height="26" as="geometry" />
        </mxCell>
        <mxCell id="J4wgWrxB4ma67eAixFHz-36" value="+ update_listafornitori(): void" style="text;strokeColor=none;fillColor=none;align=left;verticalAlign=top;spacingLeft=4;spacingRight=4;overflow=hidden;rotatable=0;points=[[0,0.5],[1,0.5]];portConstraint=eastwest;" parent="J4wgWrxB4ma67eAixFHz-11" vertex="1">
          <mxGeometry y="398" width="251" height="26" as="geometry" />
        </mxCell>
        <mxCell id="J4wgWrxB4ma67eAixFHz-37" value="+ add_fornitore(FornitoreModel): void" style="text;strokeColor=none;fillColor=none;align=left;verticalAlign=top;spacingLeft=4;spacingRight=4;overflow=hidden;rotatable=0;points=[[0,0.5],[1,0.5]];portConstraint=eastwest;" parent="J4wgWrxB4ma67eAixFHz-11" vertex="1">
          <mxGeometry y="424" width="251" height="26" as="geometry" />
        </mxCell>
        <mxCell id="J4wgWrxB4ma67eAixFHz-38" value="+ salva_fornitore(FornitoreModel): void" style="text;strokeColor=none;fillColor=none;align=left;verticalAlign=top;spacingLeft=4;spacingRight=4;overflow=hidden;rotatable=0;points=[[0,0.5],[1,0.5]];portConstraint=eastwest;" parent="J4wgWrxB4ma67eAixFHz-11" vertex="1">
          <mxGeometry y="450" width="251" height="26" as="geometry" />
        </mxCell>
        <mxCell id="J4wgWrxB4ma67eAixFHz-39" value="+ ricerca_fornitore(list): list" style="text;strokeColor=none;fillColor=none;align=left;verticalAlign=top;spacingLeft=4;spacingRight=4;overflow=hidden;rotatable=0;points=[[0,0.5],[1,0.5]];portConstraint=eastwest;" parent="J4wgWrxB4ma67eAixFHz-11" vertex="1">
          <mxGeometry y="476" width="251" height="26" as="geometry" />
        </mxCell>
        <mxCell id="J4wgWrxB4ma67eAixFHz-40" value="+ elimina_fornitori(list): void" style="text;strokeColor=none;fillColor=none;align=left;verticalAlign=top;spacingLeft=4;spacingRight=4;overflow=hidden;rotatable=0;points=[[0,0.5],[1,0.5]];portConstraint=eastwest;" parent="J4wgWrxB4ma67eAixFHz-11" vertex="1">
          <mxGeometry y="502" width="251" height="26" as="geometry" />
        </mxCell>
        <mxCell id="1v4FfqMV88ZLi4CApeXI-85" style="edgeStyle=orthogonalEdgeStyle;rounded=0;orthogonalLoop=1;jettySize=auto;html=1;exitX=0.5;exitY=1;exitDx=0;exitDy=0;exitPerimeter=0;startArrow=none;startFill=0;endArrow=block;endFill=0;" parent="KJCioZVpsJPs6qXIDCtf-15" source="J4wgWrxB4ma67eAixFHz-62" target="J4wgWrxB4ma67eAixFHz-62" edge="1">
          <mxGeometry relative="1" as="geometry" />
        </mxCell>
        <mxCell id="J4wgWrxB4ma67eAixFHz-63" value="&lt;b&gt;&lt;font style=&quot;font-size: 18px&quot;&gt;anagrafiche&lt;/font&gt;&lt;/b&gt;" style="text;html=1;strokeColor=none;fillColor=none;align=center;verticalAlign=middle;whiteSpace=wrap;rounded=0;" parent="KJCioZVpsJPs6qXIDCtf-15" vertex="1">
          <mxGeometry width="130" height="30" as="geometry" />
        </mxCell>
        <mxCell id="KJCioZVpsJPs6qXIDCtf-11" value="" style="group" vertex="1" connectable="0" parent="WIyWlLk6GJQsqaUBKTNV-1">
          <mxGeometry x="1654" y="100" width="1240" height="450" as="geometry" />
        </mxCell>
        <mxCell id="1v4FfqMV88ZLi4CApeXI-86" value="" style="shape=folder;fontStyle=1;spacingTop=10;tabWidth=120;tabHeight=30;tabPosition=left;html=1;noLabel=0;overflow=visible;direction=east;labelPadding=0;container=0;connectable=1;snapToPoint=0;gradientColor=#b3b3b3;fillColor=#f5f5f5;strokeColor=#666666;" parent="KJCioZVpsJPs6qXIDCtf-11" vertex="1">
          <mxGeometry width="1240" height="450" as="geometry">
            <mxRectangle x="20" y="90" width="80" height="30" as="alternateBounds" />
          </mxGeometry>
        </mxCell>
        <mxCell id="1v4FfqMV88ZLi4CApeXI-225" value="" style="group" parent="KJCioZVpsJPs6qXIDCtf-11" vertex="1" connectable="0">
          <mxGeometry x="40" y="100" width="330" height="200" as="geometry" />
        </mxCell>
        <mxCell id="KJCioZVpsJPs6qXIDCtf-7" value="" style="group" vertex="1" connectable="0" parent="1v4FfqMV88ZLi4CApeXI-225">
          <mxGeometry width="330" height="200" as="geometry" />
        </mxCell>
        <mxCell id="1v4FfqMV88ZLi4CApeXI-89" value="" style="shape=folder;fontStyle=1;spacingTop=10;tabWidth=120;tabHeight=30;tabPosition=left;html=1;fillColor=#f8cecc;rotation=0;gradientColor=#ea6b66;strokeColor=#b85450;" parent="KJCioZVpsJPs6qXIDCtf-7" vertex="1">
          <mxGeometry width="330" height="200" as="geometry" />
        </mxCell>
        <mxCell id="1v4FfqMV88ZLi4CApeXI-224" value="&lt;font style=&quot;font-size: 18px&quot;&gt;&lt;b&gt;model&lt;/b&gt;&lt;/font&gt;" style="text;html=1;strokeColor=none;fillColor=none;align=center;verticalAlign=middle;whiteSpace=wrap;rounded=0;rotation=0;" parent="KJCioZVpsJPs6qXIDCtf-7" vertex="1">
          <mxGeometry width="120" height="27" as="geometry" />
        </mxCell>
        <mxCell id="1v4FfqMV88ZLi4CApeXI-178" value="LoginModel" style="swimlane;fontStyle=1;align=center;verticalAlign=top;childLayout=stackLayout;horizontal=1;startSize=26;horizontalStack=0;resizeParent=1;resizeParentMax=0;resizeLast=0;collapsible=1;marginBottom=0;rotation=0;" parent="KJCioZVpsJPs6qXIDCtf-7" vertex="1">
          <mxGeometry x="30" y="50" width="260.5" height="126.80000000000003" as="geometry" />
        </mxCell>
        <mxCell id="1v4FfqMV88ZLi4CApeXI-179" value="+ db: Connection" style="text;strokeColor=none;fillColor=none;align=left;verticalAlign=top;spacingLeft=4;spacingRight=4;overflow=hidden;rotatable=0;points=[[0,0.5],[1,0.5]];portConstraint=eastwest;rotation=0;" parent="1v4FfqMV88ZLi4CApeXI-178" vertex="1">
          <mxGeometry y="26" width="260.5" height="23.400000000000002" as="geometry" />
        </mxCell>
        <mxCell id="1v4FfqMV88ZLi4CApeXI-196" value="+ dipendente_controller: DipendenteController" style="text;strokeColor=none;fillColor=none;align=left;verticalAlign=top;spacingLeft=4;spacingRight=4;overflow=hidden;rotatable=0;points=[[0,0.5],[1,0.5]];portConstraint=eastwest;rotation=0;" parent="1v4FfqMV88ZLi4CApeXI-178" vertex="1">
          <mxGeometry y="49.400000000000006" width="260.5" height="23.400000000000002" as="geometry" />
        </mxCell>
        <mxCell id="1v4FfqMV88ZLi4CApeXI-180" value="" style="line;strokeWidth=1;fillColor=none;align=left;verticalAlign=middle;spacingTop=-1;spacingLeft=3;spacingRight=3;rotatable=0;labelPosition=right;points=[];portConstraint=eastwest;rotation=0;" parent="1v4FfqMV88ZLi4CApeXI-178" vertex="1">
          <mxGeometry y="72.80000000000001" width="260.5" height="7.2" as="geometry" />
        </mxCell>
        <mxCell id="1v4FfqMV88ZLi4CApeXI-181" value="+ is_utente(str,str): bool" style="text;strokeColor=none;fillColor=none;align=left;verticalAlign=top;spacingLeft=4;spacingRight=4;overflow=hidden;rotatable=0;points=[[0,0.5],[1,0.5]];portConstraint=eastwest;rotation=0;" parent="1v4FfqMV88ZLi4CApeXI-178" vertex="1">
          <mxGeometry y="80.00000000000001" width="260.5" height="23.400000000000002" as="geometry" />
        </mxCell>
        <mxCell id="1v4FfqMV88ZLi4CApeXI-182" value="+ get_utente(): DipendenteController" style="text;strokeColor=none;fillColor=none;align=left;verticalAlign=top;spacingLeft=4;spacingRight=4;overflow=hidden;rotatable=0;points=[[0,0.5],[1,0.5]];portConstraint=eastwest;rotation=0;" parent="1v4FfqMV88ZLi4CApeXI-178" vertex="1">
          <mxGeometry y="103.40000000000002" width="260.5" height="23.400000000000002" as="geometry" />
        </mxCell>
        <mxCell id="KJCioZVpsJPs6qXIDCtf-8" value="" style="group" vertex="1" connectable="0" parent="KJCioZVpsJPs6qXIDCtf-11">
          <mxGeometry x="770" y="50" width="432.77" height="340" as="geometry" />
        </mxCell>
        <mxCell id="OqV9GuMWjS4AKpWEyHok-8" value="" style="shape=folder;fontStyle=1;spacingTop=10;tabWidth=120;tabHeight=30;tabPosition=left;html=1;fillColor=#d5e8d4;gradientColor=#97d077;strokeColor=#82b366;" parent="KJCioZVpsJPs6qXIDCtf-8" vertex="1">
          <mxGeometry x="2.769999999999982" width="430" height="340" as="geometry" />
        </mxCell>
        <mxCell id="OqV9GuMWjS4AKpWEyHok-9" value="&lt;span style=&quot;font-size: 18px&quot;&gt;&lt;b&gt;view&lt;/b&gt;&lt;/span&gt;" style="text;html=1;strokeColor=none;fillColor=none;align=center;verticalAlign=middle;whiteSpace=wrap;rounded=0;" parent="KJCioZVpsJPs6qXIDCtf-8" vertex="1">
          <mxGeometry width="120" height="30" as="geometry" />
        </mxCell>
        <mxCell id="1v4FfqMV88ZLi4CApeXI-116" value="LoginView" style="swimlane;fontStyle=1;align=center;verticalAlign=top;childLayout=stackLayout;horizontal=1;startSize=26;horizontalStack=0;resizeParent=1;resizeParentMax=0;resizeLast=0;collapsible=1;marginBottom=0;" parent="KJCioZVpsJPs6qXIDCtf-8" vertex="1">
          <mxGeometry x="26.534716731296612" y="220" width="382.4742268041238" height="86" as="geometry" />
        </mxCell>
        <mxCell id="1v4FfqMV88ZLi4CApeXI-117" value="+ controller: LoginController&#xa;" style="text;strokeColor=none;fillColor=none;align=left;verticalAlign=top;spacingLeft=4;spacingRight=4;overflow=hidden;rotatable=0;points=[[0,0.5],[1,0.5]];portConstraint=eastwest;" parent="1v4FfqMV88ZLi4CApeXI-116" vertex="1">
          <mxGeometry y="26" width="382.4742268041238" height="26" as="geometry" />
        </mxCell>
        <mxCell id="1v4FfqMV88ZLi4CApeXI-122" value="" style="line;strokeWidth=1;fillColor=none;align=left;verticalAlign=middle;spacingTop=-1;spacingLeft=3;spacingRight=3;rotatable=0;labelPosition=right;points=[];portConstraint=eastwest;" parent="1v4FfqMV88ZLi4CApeXI-116" vertex="1">
          <mxGeometry y="52" width="382.4742268041238" height="8" as="geometry" />
        </mxCell>
        <mxCell id="1v4FfqMV88ZLi4CApeXI-123" value="+ accesso(): void" style="text;strokeColor=none;fillColor=none;align=left;verticalAlign=top;spacingLeft=4;spacingRight=4;overflow=hidden;rotatable=0;points=[[0,0.5],[1,0.5]];portConstraint=eastwest;" parent="1v4FfqMV88ZLi4CApeXI-116" vertex="1">
          <mxGeometry y="60" width="382.4742268041238" height="26" as="geometry" />
        </mxCell>
        <mxCell id="1v4FfqMV88ZLi4CApeXI-115" style="edgeStyle=orthogonalEdgeStyle;rounded=0;orthogonalLoop=1;jettySize=auto;html=1;exitX=0.5;exitY=0;exitDx=0;exitDy=0;entryX=0.5;entryY=1;entryDx=0;entryDy=0;startArrow=none;startFill=0;endArrow=block;endFill=0;" parent="KJCioZVpsJPs6qXIDCtf-8" source="1v4FfqMV88ZLi4CApeXI-116" target="1v4FfqMV88ZLi4CApeXI-166" edge="1">
          <mxGeometry x="2480" y="130" as="geometry" />
        </mxCell>
        <mxCell id="1v4FfqMV88ZLi4CApeXI-166" value="Ui_LoginView" style="swimlane;fontStyle=1;align=center;verticalAlign=top;childLayout=stackLayout;horizontal=1;startSize=26;horizontalStack=0;resizeParent=1;resizeParentMax=0;resizeLast=0;collapsible=1;marginBottom=0;" parent="KJCioZVpsJPs6qXIDCtf-8" vertex="1">
          <mxGeometry x="106.2849541284404" y="40" width="222.9695412844037" height="86" as="geometry" />
        </mxCell>
        <mxCell id="1v4FfqMV88ZLi4CApeXI-167" value="" style="line;strokeWidth=1;fillColor=none;align=left;verticalAlign=middle;spacingTop=-1;spacingLeft=3;spacingRight=3;rotatable=0;labelPosition=right;points=[];portConstraint=eastwest;" parent="1v4FfqMV88ZLi4CApeXI-166" vertex="1">
          <mxGeometry y="26" width="222.9695412844037" height="8" as="geometry" />
        </mxCell>
        <mxCell id="1v4FfqMV88ZLi4CApeXI-169" value="+ retranslateUi(LoginView): void" style="text;strokeColor=none;fillColor=none;align=left;verticalAlign=top;spacingLeft=4;spacingRight=4;overflow=hidden;rotatable=0;points=[[0,0.5],[1,0.5]];portConstraint=eastwest;" parent="1v4FfqMV88ZLi4CApeXI-166" vertex="1">
          <mxGeometry y="34" width="222.9695412844037" height="26" as="geometry" />
        </mxCell>
        <mxCell id="1v4FfqMV88ZLi4CApeXI-168" value="+ setupUi(LoginView): void" style="text;strokeColor=none;fillColor=none;align=left;verticalAlign=top;spacingLeft=4;spacingRight=4;overflow=hidden;rotatable=0;points=[[0,0.5],[1,0.5]];portConstraint=eastwest;" parent="1v4FfqMV88ZLi4CApeXI-166" vertex="1">
          <mxGeometry y="60" width="222.9695412844037" height="26" as="geometry" />
        </mxCell>
        <mxCell id="1v4FfqMV88ZLi4CApeXI-87" value="&lt;b&gt;&lt;font style=&quot;font-size: 18px&quot;&gt;login&lt;/font&gt;&lt;/b&gt;" style="text;html=1;strokeColor=none;fillColor=none;align=center;verticalAlign=middle;whiteSpace=wrap;rounded=0;" parent="KJCioZVpsJPs6qXIDCtf-11" vertex="1">
          <mxGeometry width="120" height="30" as="geometry" />
        </mxCell>
        <mxCell id="KJCioZVpsJPs6qXIDCtf-6" value="" style="group" vertex="1" connectable="0" parent="KJCioZVpsJPs6qXIDCtf-11">
          <mxGeometry x="406" y="100" width="330" height="200" as="geometry" />
        </mxCell>
        <mxCell id="1v4FfqMV88ZLi4CApeXI-92" value="" style="shape=folder;fontStyle=1;spacingTop=10;tabWidth=120;tabHeight=30;tabPosition=left;html=1;fillColor=#fff2cc;gradientColor=#ffd966;strokeColor=#d6b656;" parent="KJCioZVpsJPs6qXIDCtf-6" vertex="1">
          <mxGeometry width="330" height="200" as="geometry" />
        </mxCell>
        <mxCell id="1v4FfqMV88ZLi4CApeXI-94" value="LoginController" style="swimlane;fontStyle=1;align=center;verticalAlign=top;childLayout=stackLayout;horizontal=1;startSize=26;horizontalStack=0;resizeParent=1;resizeParentMax=0;resizeLast=0;collapsible=1;marginBottom=0;" parent="KJCioZVpsJPs6qXIDCtf-6" vertex="1">
          <mxGeometry x="54.75" y="60" width="220.5" height="112" as="geometry" />
        </mxCell>
        <mxCell id="1v4FfqMV88ZLi4CApeXI-95" value="+ model: LoginModel" style="text;strokeColor=none;fillColor=none;align=left;verticalAlign=top;spacingLeft=4;spacingRight=4;overflow=hidden;rotatable=0;points=[[0,0.5],[1,0.5]];portConstraint=eastwest;" parent="1v4FfqMV88ZLi4CApeXI-94" vertex="1">
          <mxGeometry y="26" width="220.5" height="26.000000000000004" as="geometry" />
        </mxCell>
        <mxCell id="1v4FfqMV88ZLi4CApeXI-96" value="" style="line;strokeWidth=1;fillColor=none;align=left;verticalAlign=middle;spacingTop=-1;spacingLeft=3;spacingRight=3;rotatable=0;labelPosition=right;points=[];portConstraint=eastwest;" parent="1v4FfqMV88ZLi4CApeXI-94" vertex="1">
          <mxGeometry y="52" width="220.5" height="8" as="geometry" />
        </mxCell>
        <mxCell id="1v4FfqMV88ZLi4CApeXI-97" value="+ is_utente(str,str): bool" style="text;strokeColor=none;fillColor=none;align=left;verticalAlign=top;spacingLeft=4;spacingRight=4;overflow=hidden;rotatable=0;points=[[0,0.5],[1,0.5]];portConstraint=eastwest;" parent="1v4FfqMV88ZLi4CApeXI-94" vertex="1">
          <mxGeometry y="60" width="220.5" height="26.000000000000004" as="geometry" />
        </mxCell>
        <mxCell id="1v4FfqMV88ZLi4CApeXI-98" value="+ get_utente(): DipendenteController" style="text;strokeColor=none;fillColor=none;align=left;verticalAlign=top;spacingLeft=4;spacingRight=4;overflow=hidden;rotatable=0;points=[[0,0.5],[1,0.5]];portConstraint=eastwest;" parent="1v4FfqMV88ZLi4CApeXI-94" vertex="1">
          <mxGeometry y="86" width="220.5" height="26.000000000000004" as="geometry" />
        </mxCell>
        <mxCell id="1v4FfqMV88ZLi4CApeXI-93" value="&lt;span style=&quot;font-size: 18px&quot;&gt;&lt;b&gt;controller&lt;/b&gt;&lt;/span&gt;" style="text;html=1;strokeColor=none;fillColor=none;align=center;verticalAlign=middle;whiteSpace=wrap;rounded=0;" parent="KJCioZVpsJPs6qXIDCtf-6" vertex="1">
          <mxGeometry width="120" height="30" as="geometry" />
        </mxCell>
        <mxCell id="1v4FfqMV88ZLi4CApeXI-198" style="edgeStyle=orthogonalEdgeStyle;rounded=0;orthogonalLoop=1;jettySize=auto;html=1;exitX=0.5;exitY=1;exitDx=0;exitDy=0;exitPerimeter=0;startArrow=none;startFill=0;endArrow=block;endFill=0;" parent="KJCioZVpsJPs6qXIDCtf-6" source="1v4FfqMV88ZLi4CApeXI-92" target="1v4FfqMV88ZLi4CApeXI-92" edge="1">
          <mxGeometry x="4240" y="250" as="geometry" />
        </mxCell>
        <mxCell id="KJCioZVpsJPs6qXIDCtf-13" value="" style="group" vertex="1" connectable="0" parent="WIyWlLk6GJQsqaUBKTNV-1">
          <mxGeometry x="1655" y="650" width="550" height="645" as="geometry" />
        </mxCell>
        <mxCell id="1v4FfqMV88ZLi4CApeXI-209" value="" style="shape=folder;fontStyle=1;spacingTop=10;tabWidth=120;tabHeight=30;tabPosition=left;html=1;noLabel=0;overflow=visible;direction=east;labelPadding=0;container=0;connectable=1;snapToPoint=0;gradientColor=#b3b3b3;fillColor=#f5f5f5;strokeColor=#666666;" parent="KJCioZVpsJPs6qXIDCtf-13" vertex="1">
          <mxGeometry width="550" height="645" as="geometry">
            <mxRectangle x="20" y="90" width="80" height="30" as="alternateBounds" />
          </mxGeometry>
        </mxCell>
        <mxCell id="1v4FfqMV88ZLi4CApeXI-210" value="&lt;b&gt;&lt;font style=&quot;font-size: 18px&quot;&gt;home&lt;/font&gt;&lt;/b&gt;" style="text;html=1;strokeColor=none;fillColor=none;align=center;verticalAlign=middle;whiteSpace=wrap;rounded=0;" parent="KJCioZVpsJPs6qXIDCtf-13" vertex="1">
          <mxGeometry width="130" height="30" as="geometry" />
        </mxCell>
        <mxCell id="KJCioZVpsJPs6qXIDCtf-12" value="" style="group" vertex="1" connectable="0" parent="KJCioZVpsJPs6qXIDCtf-13">
          <mxGeometry x="58.61999999999989" y="60" width="432.7600000000002" height="560" as="geometry" />
        </mxCell>
        <mxCell id="1v4FfqMV88ZLi4CApeXI-248" value="" style="shape=folder;fontStyle=1;spacingTop=10;tabWidth=120;tabHeight=30;tabPosition=left;html=1;fillColor=#d5e8d4;gradientColor=#97d077;strokeColor=#82b366;" parent="KJCioZVpsJPs6qXIDCtf-12" vertex="1">
          <mxGeometry x="2.759999999999991" width="430" height="560" as="geometry" />
        </mxCell>
        <mxCell id="1v4FfqMV88ZLi4CApeXI-249" value="HomeView" style="swimlane;fontStyle=1;align=center;verticalAlign=top;childLayout=stackLayout;horizontal=1;startSize=26;horizontalStack=0;resizeParent=1;resizeParentMax=0;resizeLast=0;collapsible=1;marginBottom=0;" parent="KJCioZVpsJPs6qXIDCtf-12" vertex="1">
          <mxGeometry x="26.529999999999973" y="220" width="382.47" height="322" as="geometry" />
        </mxCell>
        <mxCell id="1v4FfqMV88ZLi4CApeXI-250" value="+ dipendente: DipendenteModel&#xa;" style="text;strokeColor=none;fillColor=none;align=left;verticalAlign=top;spacingLeft=4;spacingRight=4;overflow=hidden;rotatable=0;points=[[0,0.5],[1,0.5]];portConstraint=eastwest;" parent="1v4FfqMV88ZLi4CApeXI-249" vertex="1">
          <mxGeometry y="26" width="382.47" height="26" as="geometry" />
        </mxCell>
        <mxCell id="1v4FfqMV88ZLi4CApeXI-258" value="+ login_window: LoginView" style="text;strokeColor=none;fillColor=none;align=left;verticalAlign=top;spacingLeft=4;spacingRight=4;overflow=hidden;rotatable=0;points=[[0,0.5],[1,0.5]];portConstraint=eastwest;" parent="1v4FfqMV88ZLi4CApeXI-249" vertex="1">
          <mxGeometry y="52" width="382.47" height="26" as="geometry" />
        </mxCell>
        <mxCell id="1v4FfqMV88ZLi4CApeXI-251" value="" style="line;strokeWidth=1;fillColor=none;align=left;verticalAlign=middle;spacingTop=-1;spacingLeft=3;spacingRight=3;rotatable=0;labelPosition=right;points=[];portConstraint=eastwest;" parent="1v4FfqMV88ZLi4CApeXI-249" vertex="1">
          <mxGeometry y="78" width="382.47" height="8" as="geometry" />
        </mxCell>
        <mxCell id="1v4FfqMV88ZLi4CApeXI-252" value="+ open_bar(): void" style="text;strokeColor=none;fillColor=none;align=left;verticalAlign=top;spacingLeft=4;spacingRight=4;overflow=hidden;rotatable=0;points=[[0,0.5],[1,0.5]];portConstraint=eastwest;" parent="1v4FfqMV88ZLi4CApeXI-249" vertex="1">
          <mxGeometry y="86" width="382.47" height="26" as="geometry" />
        </mxCell>
        <mxCell id="1v4FfqMV88ZLi4CApeXI-259" value="+ open_camere(): void" style="text;strokeColor=none;fillColor=none;align=left;verticalAlign=top;spacingLeft=4;spacingRight=4;overflow=hidden;rotatable=0;points=[[0,0.5],[1,0.5]];portConstraint=eastwest;" parent="1v4FfqMV88ZLi4CApeXI-249" vertex="1">
          <mxGeometry y="112" width="382.47" height="26" as="geometry" />
        </mxCell>
        <mxCell id="1v4FfqMV88ZLi4CApeXI-260" value="+ open_anagrafiche(): void" style="text;strokeColor=none;fillColor=none;align=left;verticalAlign=top;spacingLeft=4;spacingRight=4;overflow=hidden;rotatable=0;points=[[0,0.5],[1,0.5]];portConstraint=eastwest;" parent="1v4FfqMV88ZLi4CApeXI-249" vertex="1">
          <mxGeometry y="138" width="382.47" height="28" as="geometry" />
        </mxCell>
        <mxCell id="1v4FfqMV88ZLi4CApeXI-261" value="+ open_magazzino(): void" style="text;strokeColor=none;fillColor=none;align=left;verticalAlign=top;spacingLeft=4;spacingRight=4;overflow=hidden;rotatable=0;points=[[0,0.5],[1,0.5]];portConstraint=eastwest;" parent="1v4FfqMV88ZLi4CApeXI-249" vertex="1">
          <mxGeometry y="166" width="382.47" height="26" as="geometry" />
        </mxCell>
        <mxCell id="1v4FfqMV88ZLi4CApeXI-262" value="+ open_meteo(): void" style="text;strokeColor=none;fillColor=none;align=left;verticalAlign=top;spacingLeft=4;spacingRight=4;overflow=hidden;rotatable=0;points=[[0,0.5],[1,0.5]];portConstraint=eastwest;" parent="1v4FfqMV88ZLi4CApeXI-249" vertex="1">
          <mxGeometry y="192" width="382.47" height="26" as="geometry" />
        </mxCell>
        <mxCell id="1v4FfqMV88ZLi4CApeXI-263" value="+ open_ombrelloni(): void" style="text;strokeColor=none;fillColor=none;align=left;verticalAlign=top;spacingLeft=4;spacingRight=4;overflow=hidden;rotatable=0;points=[[0,0.5],[1,0.5]];portConstraint=eastwest;" parent="1v4FfqMV88ZLi4CApeXI-249" vertex="1">
          <mxGeometry y="218" width="382.47" height="26" as="geometry" />
        </mxCell>
        <mxCell id="1v4FfqMV88ZLi4CApeXI-264" value="+ open_ristorante(): void" style="text;strokeColor=none;fillColor=none;align=left;verticalAlign=top;spacingLeft=4;spacingRight=4;overflow=hidden;rotatable=0;points=[[0,0.5],[1,0.5]];portConstraint=eastwest;" parent="1v4FfqMV88ZLi4CApeXI-249" vertex="1">
          <mxGeometry y="244" width="382.47" height="26" as="geometry" />
        </mxCell>
        <mxCell id="1v4FfqMV88ZLi4CApeXI-265" value="+ open_logout(): void" style="text;strokeColor=none;fillColor=none;align=left;verticalAlign=top;spacingLeft=4;spacingRight=4;overflow=hidden;rotatable=0;points=[[0,0.5],[1,0.5]];portConstraint=eastwest;" parent="1v4FfqMV88ZLi4CApeXI-249" vertex="1">
          <mxGeometry y="270" width="382.47" height="26" as="geometry" />
        </mxCell>
        <mxCell id="1v4FfqMV88ZLi4CApeXI-266" value="+ connect_button(): void" style="text;strokeColor=none;fillColor=none;align=left;verticalAlign=top;spacingLeft=4;spacingRight=4;overflow=hidden;rotatable=0;points=[[0,0.5],[1,0.5]];portConstraint=eastwest;" parent="1v4FfqMV88ZLi4CApeXI-249" vertex="1">
          <mxGeometry y="296" width="382.47" height="26" as="geometry" />
        </mxCell>
        <mxCell id="1v4FfqMV88ZLi4CApeXI-253" value="Ui_HomeView" style="swimlane;fontStyle=1;align=center;verticalAlign=top;childLayout=stackLayout;horizontal=1;startSize=26;horizontalStack=0;resizeParent=1;resizeParentMax=0;resizeLast=0;collapsible=1;marginBottom=0;" parent="KJCioZVpsJPs6qXIDCtf-12" vertex="1">
          <mxGeometry x="106.2849541284404" y="40" width="222.9695412844037" height="86" as="geometry" />
        </mxCell>
        <mxCell id="1v4FfqMV88ZLi4CApeXI-254" value="" style="line;strokeWidth=1;fillColor=none;align=left;verticalAlign=middle;spacingTop=-1;spacingLeft=3;spacingRight=3;rotatable=0;labelPosition=right;points=[];portConstraint=eastwest;" parent="1v4FfqMV88ZLi4CApeXI-253" vertex="1">
          <mxGeometry y="26" width="222.9695412844037" height="8" as="geometry" />
        </mxCell>
        <mxCell id="1v4FfqMV88ZLi4CApeXI-255" value="+ setupUi(HomeView): void" style="text;strokeColor=none;fillColor=none;align=left;verticalAlign=top;spacingLeft=4;spacingRight=4;overflow=hidden;rotatable=0;points=[[0,0.5],[1,0.5]];portConstraint=eastwest;" parent="1v4FfqMV88ZLi4CApeXI-253" vertex="1">
          <mxGeometry y="34" width="222.9695412844037" height="26" as="geometry" />
        </mxCell>
        <mxCell id="1v4FfqMV88ZLi4CApeXI-256" value="+ displayTime(): void" style="text;strokeColor=none;fillColor=none;align=left;verticalAlign=top;spacingLeft=4;spacingRight=4;overflow=hidden;rotatable=0;points=[[0,0.5],[1,0.5]];portConstraint=eastwest;" parent="1v4FfqMV88ZLi4CApeXI-253" vertex="1">
          <mxGeometry y="60" width="222.9695412844037" height="26" as="geometry" />
        </mxCell>
        <mxCell id="1v4FfqMV88ZLi4CApeXI-257" style="edgeStyle=orthogonalEdgeStyle;rounded=0;orthogonalLoop=1;jettySize=auto;html=1;exitX=0.5;exitY=0;exitDx=0;exitDy=0;entryX=0.5;entryY=1;entryDx=0;entryDy=0;startArrow=none;startFill=0;endArrow=block;endFill=0;" parent="KJCioZVpsJPs6qXIDCtf-12" source="1v4FfqMV88ZLi4CApeXI-249" target="1v4FfqMV88ZLi4CApeXI-253" edge="1">
          <mxGeometry x="2480" y="130" as="geometry" />
        </mxCell>
        <mxCell id="1v4FfqMV88ZLi4CApeXI-267" value="&lt;span style=&quot;font-size: 18px&quot;&gt;&lt;b&gt;view&lt;/b&gt;&lt;/span&gt;" style="text;html=1;strokeColor=none;fillColor=none;align=center;verticalAlign=middle;whiteSpace=wrap;rounded=0;" parent="KJCioZVpsJPs6qXIDCtf-12" vertex="1">
          <mxGeometry width="120" height="30" as="geometry" />
        </mxCell>
        <mxCell id="KJCioZVpsJPs6qXIDCtf-16" value="" style="group" vertex="1" connectable="0" parent="WIyWlLk6GJQsqaUBKTNV-1">
          <mxGeometry x="2970" y="140" width="1550" height="1330" as="geometry" />
        </mxCell>
        <mxCell id="KJCioZVpsJPs6qXIDCtf-17" value="" style="shape=folder;fontStyle=1;spacingTop=10;tabWidth=120;tabHeight=30;tabPosition=left;html=1;noLabel=0;overflow=visible;direction=east;labelPadding=0;container=0;connectable=1;snapToPoint=0;gradientColor=#b3b3b3;fillColor=#f5f5f5;strokeColor=#666666;" vertex="1" parent="KJCioZVpsJPs6qXIDCtf-16">
          <mxGeometry width="1550" height="1330" as="geometry">
            <mxRectangle x="20" y="90" width="80" height="30" as="alternateBounds" />
          </mxGeometry>
        </mxCell>
        <mxCell id="KJCioZVpsJPs6qXIDCtf-18" value="" style="group" vertex="1" connectable="0" parent="KJCioZVpsJPs6qXIDCtf-16">
          <mxGeometry x="800" y="50" width="699.6226415094338" height="1270" as="geometry" />
        </mxCell>
        <mxCell id="KJCioZVpsJPs6qXIDCtf-19" value="" style="shape=folder;fontStyle=1;spacingTop=10;tabWidth=120;tabHeight=30;tabPosition=left;html=1;fillColor=#d5e8d4;gradientColor=#97d077;strokeColor=#82b366;" vertex="1" parent="KJCioZVpsJPs6qXIDCtf-18">
          <mxGeometry width="699.622641509434" height="1270" as="geometry" />
        </mxCell>
        <mxCell id="KJCioZVpsJPs6qXIDCtf-20" value="&lt;span style=&quot;font-size: 18px&quot;&gt;&lt;b&gt;view&lt;/b&gt;&lt;/span&gt;" style="text;html=1;strokeColor=none;fillColor=none;align=center;verticalAlign=middle;whiteSpace=wrap;rounded=0;" vertex="1" parent="KJCioZVpsJPs6qXIDCtf-18">
          <mxGeometry width="120" height="30" as="geometry" />
        </mxCell>
        <mxCell id="KJCioZVpsJPs6qXIDCtf-21" value="AnagraficheView" style="swimlane;fontStyle=1;align=center;verticalAlign=top;childLayout=stackLayout;horizontal=1;startSize=26;horizontalStack=0;resizeParent=1;resizeParentMax=0;resizeLast=0;collapsible=1;marginBottom=0;" vertex="1" parent="KJCioZVpsJPs6qXIDCtf-18">
          <mxGeometry x="16.066753050222246" y="311" width="371.6494845360826" height="944" as="geometry" />
        </mxCell>
        <mxCell id="KJCioZVpsJPs6qXIDCtf-22" value="+ controller: AnagraficheController&#xa;" style="text;strokeColor=none;fillColor=none;align=left;verticalAlign=top;spacingLeft=4;spacingRight=4;overflow=hidden;rotatable=0;points=[[0,0.5],[1,0.5]];portConstraint=eastwest;" vertex="1" parent="KJCioZVpsJPs6qXIDCtf-21">
          <mxGeometry y="26" width="371.6494845360826" height="26" as="geometry" />
        </mxCell>
        <mxCell id="KJCioZVpsJPs6qXIDCtf-23" value="+ dipendente: DipendenteModel&#xa;" style="text;strokeColor=none;fillColor=none;align=left;verticalAlign=top;spacingLeft=4;spacingRight=4;overflow=hidden;rotatable=0;points=[[0,0.5],[1,0.5]];portConstraint=eastwest;" vertex="1" parent="KJCioZVpsJPs6qXIDCtf-21">
          <mxGeometry y="52" width="371.6494845360826" height="26" as="geometry" />
        </mxCell>
        <mxCell id="KJCioZVpsJPs6qXIDCtf-24" value="+ controller_cliente: ClienteController" style="text;strokeColor=none;fillColor=none;align=left;verticalAlign=top;spacingLeft=4;spacingRight=4;overflow=hidden;rotatable=0;points=[[0,0.5],[1,0.5]];portConstraint=eastwest;" vertex="1" parent="KJCioZVpsJPs6qXIDCtf-21">
          <mxGeometry y="78" width="371.6494845360826" height="26" as="geometry" />
        </mxCell>
        <mxCell id="KJCioZVpsJPs6qXIDCtf-25" value="+ controller_fornitore: FornitoreController&#xa;" style="text;strokeColor=none;fillColor=none;align=left;verticalAlign=top;spacingLeft=4;spacingRight=4;overflow=hidden;rotatable=0;points=[[0,0.5],[1,0.5]];portConstraint=eastwest;" vertex="1" parent="KJCioZVpsJPs6qXIDCtf-21">
          <mxGeometry y="104" width="371.6494845360826" height="26" as="geometry" />
        </mxCell>
        <mxCell id="KJCioZVpsJPs6qXIDCtf-26" value="+ controller_dipendente: DipendenteController&#xa;" style="text;strokeColor=none;fillColor=none;align=left;verticalAlign=top;spacingLeft=4;spacingRight=4;overflow=hidden;rotatable=0;points=[[0,0.5],[1,0.5]];portConstraint=eastwest;" vertex="1" parent="KJCioZVpsJPs6qXIDCtf-21">
          <mxGeometry y="130" width="371.6494845360826" height="26" as="geometry" />
        </mxCell>
        <mxCell id="KJCioZVpsJPs6qXIDCtf-27" value="" style="line;strokeWidth=1;fillColor=none;align=left;verticalAlign=middle;spacingTop=-1;spacingLeft=3;spacingRight=3;rotatable=0;labelPosition=right;points=[];portConstraint=eastwest;" vertex="1" parent="KJCioZVpsJPs6qXIDCtf-21">
          <mxGeometry y="156" width="371.6494845360826" height="8" as="geometry" />
        </mxCell>
        <mxCell id="KJCioZVpsJPs6qXIDCtf-28" value="+ connectAction(): void" style="text;strokeColor=none;fillColor=none;align=left;verticalAlign=top;spacingLeft=4;spacingRight=4;overflow=hidden;rotatable=0;points=[[0,0.5],[1,0.5]];portConstraint=eastwest;" vertex="1" parent="KJCioZVpsJPs6qXIDCtf-21">
          <mxGeometry y="164" width="371.6494845360826" height="26" as="geometry" />
        </mxCell>
        <mxCell id="KJCioZVpsJPs6qXIDCtf-29" value="+ add_cliente(): void" style="text;strokeColor=none;fillColor=none;align=left;verticalAlign=top;spacingLeft=4;spacingRight=4;overflow=hidden;rotatable=0;points=[[0,0.5],[1,0.5]];portConstraint=eastwest;" vertex="1" parent="KJCioZVpsJPs6qXIDCtf-21">
          <mxGeometry y="190" width="371.6494845360826" height="26" as="geometry" />
        </mxCell>
        <mxCell id="KJCioZVpsJPs6qXIDCtf-30" value="+ modifica_cliente(): void" style="text;strokeColor=none;fillColor=none;align=left;verticalAlign=top;spacingLeft=4;spacingRight=4;overflow=hidden;rotatable=0;points=[[0,0.5],[1,0.5]];portConstraint=eastwest;" vertex="1" parent="KJCioZVpsJPs6qXIDCtf-21">
          <mxGeometry y="216" width="371.6494845360826" height="26" as="geometry" />
        </mxCell>
        <mxCell id="KJCioZVpsJPs6qXIDCtf-31" value="+ elimina_cliente(): void" style="text;strokeColor=none;fillColor=none;align=left;verticalAlign=top;spacingLeft=4;spacingRight=4;overflow=hidden;rotatable=0;points=[[0,0.5],[1,0.5]];portConstraint=eastwest;" vertex="1" parent="KJCioZVpsJPs6qXIDCtf-21">
          <mxGeometry y="242" width="371.6494845360826" height="26" as="geometry" />
        </mxCell>
        <mxCell id="KJCioZVpsJPs6qXIDCtf-32" value="+ salva_cliente(): void" style="text;strokeColor=none;fillColor=none;align=left;verticalAlign=top;spacingLeft=4;spacingRight=4;overflow=hidden;rotatable=0;points=[[0,0.5],[1,0.5]];portConstraint=eastwest;" vertex="1" parent="KJCioZVpsJPs6qXIDCtf-21">
          <mxGeometry y="268" width="371.6494845360826" height="26" as="geometry" />
        </mxCell>
        <mxCell id="KJCioZVpsJPs6qXIDCtf-33" value="+ ricerca_cliente(): void" style="text;strokeColor=none;fillColor=none;align=left;verticalAlign=top;spacingLeft=4;spacingRight=4;overflow=hidden;rotatable=0;points=[[0,0.5],[1,0.5]];portConstraint=eastwest;" vertex="1" parent="KJCioZVpsJPs6qXIDCtf-21">
          <mxGeometry y="294" width="371.6494845360826" height="26" as="geometry" />
        </mxCell>
        <mxCell id="KJCioZVpsJPs6qXIDCtf-34" value="+ annula_cliente(): void" style="text;strokeColor=none;fillColor=none;align=left;verticalAlign=top;spacingLeft=4;spacingRight=4;overflow=hidden;rotatable=0;points=[[0,0.5],[1,0.5]];portConstraint=eastwest;" vertex="1" parent="KJCioZVpsJPs6qXIDCtf-21">
          <mxGeometry y="320" width="371.6494845360826" height="26" as="geometry" />
        </mxCell>
        <mxCell id="KJCioZVpsJPs6qXIDCtf-35" value="+ get_info_cliente_from_view(): tuple" style="text;strokeColor=none;fillColor=none;align=left;verticalAlign=top;spacingLeft=4;spacingRight=4;overflow=hidden;rotatable=0;points=[[0,0.5],[1,0.5]];portConstraint=eastwest;" vertex="1" parent="KJCioZVpsJPs6qXIDCtf-21">
          <mxGeometry y="346" width="371.6494845360826" height="26" as="geometry" />
        </mxCell>
        <mxCell id="KJCioZVpsJPs6qXIDCtf-36" value="+ add_dipendente(): void" style="text;strokeColor=none;fillColor=none;align=left;verticalAlign=top;spacingLeft=4;spacingRight=4;overflow=hidden;rotatable=0;points=[[0,0.5],[1,0.5]];portConstraint=eastwest;" vertex="1" parent="KJCioZVpsJPs6qXIDCtf-21">
          <mxGeometry y="372" width="371.6494845360826" height="26" as="geometry" />
        </mxCell>
        <mxCell id="KJCioZVpsJPs6qXIDCtf-37" value="+ modifica_dipendente(): void" style="text;strokeColor=none;fillColor=none;align=left;verticalAlign=top;spacingLeft=4;spacingRight=4;overflow=hidden;rotatable=0;points=[[0,0.5],[1,0.5]];portConstraint=eastwest;" vertex="1" parent="KJCioZVpsJPs6qXIDCtf-21">
          <mxGeometry y="398" width="371.6494845360826" height="26" as="geometry" />
        </mxCell>
        <mxCell id="KJCioZVpsJPs6qXIDCtf-38" value="+ elimina_dipendenti(): void" style="text;strokeColor=none;fillColor=none;align=left;verticalAlign=top;spacingLeft=4;spacingRight=4;overflow=hidden;rotatable=0;points=[[0,0.5],[1,0.5]];portConstraint=eastwest;" vertex="1" parent="KJCioZVpsJPs6qXIDCtf-21">
          <mxGeometry y="424" width="371.6494845360826" height="26" as="geometry" />
        </mxCell>
        <mxCell id="KJCioZVpsJPs6qXIDCtf-39" value="+ ricerca_dipendente(): void" style="text;strokeColor=none;fillColor=none;align=left;verticalAlign=top;spacingLeft=4;spacingRight=4;overflow=hidden;rotatable=0;points=[[0,0.5],[1,0.5]];portConstraint=eastwest;" vertex="1" parent="KJCioZVpsJPs6qXIDCtf-21">
          <mxGeometry y="450" width="371.6494845360826" height="26" as="geometry" />
        </mxCell>
        <mxCell id="KJCioZVpsJPs6qXIDCtf-40" value="+ salva_dipendente(): void" style="text;strokeColor=none;fillColor=none;align=left;verticalAlign=top;spacingLeft=4;spacingRight=4;overflow=hidden;rotatable=0;points=[[0,0.5],[1,0.5]];portConstraint=eastwest;" vertex="1" parent="KJCioZVpsJPs6qXIDCtf-21">
          <mxGeometry y="476" width="371.6494845360826" height="26" as="geometry" />
        </mxCell>
        <mxCell id="KJCioZVpsJPs6qXIDCtf-41" value="+ on_annula_dipendente_clicked(): void" style="text;strokeColor=none;fillColor=none;align=left;verticalAlign=top;spacingLeft=4;spacingRight=4;overflow=hidden;rotatable=0;points=[[0,0.5],[1,0.5]];portConstraint=eastwest;" vertex="1" parent="KJCioZVpsJPs6qXIDCtf-21">
          <mxGeometry y="502" width="371.6494845360826" height="26" as="geometry" />
        </mxCell>
        <mxCell id="KJCioZVpsJPs6qXIDCtf-42" value="+ annula_dipendente(): void" style="text;strokeColor=none;fillColor=none;align=left;verticalAlign=top;spacingLeft=4;spacingRight=4;overflow=hidden;rotatable=0;points=[[0,0.5],[1,0.5]];portConstraint=eastwest;" vertex="1" parent="KJCioZVpsJPs6qXIDCtf-21">
          <mxGeometry y="528" width="371.6494845360826" height="26" as="geometry" />
        </mxCell>
        <mxCell id="KJCioZVpsJPs6qXIDCtf-43" value="+ get_info_dipendente_from_view(): tuple" style="text;strokeColor=none;fillColor=none;align=left;verticalAlign=top;spacingLeft=4;spacingRight=4;overflow=hidden;rotatable=0;points=[[0,0.5],[1,0.5]];portConstraint=eastwest;" vertex="1" parent="KJCioZVpsJPs6qXIDCtf-21">
          <mxGeometry y="554" width="371.6494845360826" height="26" as="geometry" />
        </mxCell>
        <mxCell id="KJCioZVpsJPs6qXIDCtf-44" value="+ add_fornitore(): void" style="text;strokeColor=none;fillColor=none;align=left;verticalAlign=top;spacingLeft=4;spacingRight=4;overflow=hidden;rotatable=0;points=[[0,0.5],[1,0.5]];portConstraint=eastwest;" vertex="1" parent="KJCioZVpsJPs6qXIDCtf-21">
          <mxGeometry y="580" width="371.6494845360826" height="26" as="geometry" />
        </mxCell>
        <mxCell id="KJCioZVpsJPs6qXIDCtf-45" value="+ modifica_fornitore(): void" style="text;strokeColor=none;fillColor=none;align=left;verticalAlign=top;spacingLeft=4;spacingRight=4;overflow=hidden;rotatable=0;points=[[0,0.5],[1,0.5]];portConstraint=eastwest;" vertex="1" parent="KJCioZVpsJPs6qXIDCtf-21">
          <mxGeometry y="606" width="371.6494845360826" height="26" as="geometry" />
        </mxCell>
        <mxCell id="KJCioZVpsJPs6qXIDCtf-46" value="+ elimina_fornitori(): void" style="text;strokeColor=none;fillColor=none;align=left;verticalAlign=top;spacingLeft=4;spacingRight=4;overflow=hidden;rotatable=0;points=[[0,0.5],[1,0.5]];portConstraint=eastwest;" vertex="1" parent="KJCioZVpsJPs6qXIDCtf-21">
          <mxGeometry y="632" width="371.6494845360826" height="26" as="geometry" />
        </mxCell>
        <mxCell id="KJCioZVpsJPs6qXIDCtf-47" value="+ ricerca_fornitore(): void" style="text;strokeColor=none;fillColor=none;align=left;verticalAlign=top;spacingLeft=4;spacingRight=4;overflow=hidden;rotatable=0;points=[[0,0.5],[1,0.5]];portConstraint=eastwest;" vertex="1" parent="KJCioZVpsJPs6qXIDCtf-21">
          <mxGeometry y="658" width="371.6494845360826" height="26" as="geometry" />
        </mxCell>
        <mxCell id="KJCioZVpsJPs6qXIDCtf-48" value="+ salva_fornitore(): void" style="text;strokeColor=none;fillColor=none;align=left;verticalAlign=top;spacingLeft=4;spacingRight=4;overflow=hidden;rotatable=0;points=[[0,0.5],[1,0.5]];portConstraint=eastwest;" vertex="1" parent="KJCioZVpsJPs6qXIDCtf-21">
          <mxGeometry y="684" width="371.6494845360826" height="26" as="geometry" />
        </mxCell>
        <mxCell id="KJCioZVpsJPs6qXIDCtf-49" value="+ on_annula_fornitore_clicked(): void" style="text;strokeColor=none;fillColor=none;align=left;verticalAlign=top;spacingLeft=4;spacingRight=4;overflow=hidden;rotatable=0;points=[[0,0.5],[1,0.5]];portConstraint=eastwest;" vertex="1" parent="KJCioZVpsJPs6qXIDCtf-21">
          <mxGeometry y="710" width="371.6494845360826" height="26" as="geometry" />
        </mxCell>
        <mxCell id="KJCioZVpsJPs6qXIDCtf-50" value="+ annula_fornitore(): void" style="text;strokeColor=none;fillColor=none;align=left;verticalAlign=top;spacingLeft=4;spacingRight=4;overflow=hidden;rotatable=0;points=[[0,0.5],[1,0.5]];portConstraint=eastwest;" vertex="1" parent="KJCioZVpsJPs6qXIDCtf-21">
          <mxGeometry y="736" width="371.6494845360826" height="26" as="geometry" />
        </mxCell>
        <mxCell id="KJCioZVpsJPs6qXIDCtf-51" value="+ get_info_fornitore_from_view(): tuple" style="text;strokeColor=none;fillColor=none;align=left;verticalAlign=top;spacingLeft=4;spacingRight=4;overflow=hidden;rotatable=0;points=[[0,0.5],[1,0.5]];portConstraint=eastwest;" vertex="1" parent="KJCioZVpsJPs6qXIDCtf-21">
          <mxGeometry y="762" width="371.6494845360826" height="26" as="geometry" />
        </mxCell>
        <mxCell id="KJCioZVpsJPs6qXIDCtf-52" value="+ checkpB_to_enable(): void" style="text;strokeColor=none;fillColor=none;align=left;verticalAlign=top;spacingLeft=4;spacingRight=4;overflow=hidden;rotatable=0;points=[[0,0.5],[1,0.5]];portConstraint=eastwest;" vertex="1" parent="KJCioZVpsJPs6qXIDCtf-21">
          <mxGeometry y="788" width="371.6494845360826" height="26" as="geometry" />
        </mxCell>
        <mxCell id="KJCioZVpsJPs6qXIDCtf-53" value="+ enable_pB(QPushButton,QPushButton,QTableWidget): void" style="text;strokeColor=none;fillColor=none;align=left;verticalAlign=top;spacingLeft=4;spacingRight=4;overflow=hidden;rotatable=0;points=[[0,0.5],[1,0.5]];portConstraint=eastwest;" vertex="1" parent="KJCioZVpsJPs6qXIDCtf-21">
          <mxGeometry y="814" width="371.6494845360826" height="26" as="geometry" />
        </mxCell>
        <mxCell id="KJCioZVpsJPs6qXIDCtf-54" value="+ aggiornaTabelle(QTableWidget, list): void" style="text;strokeColor=none;fillColor=none;align=left;verticalAlign=top;spacingLeft=4;spacingRight=4;overflow=hidden;rotatable=0;points=[[0,0.5],[1,0.5]];portConstraint=eastwest;" vertex="1" parent="KJCioZVpsJPs6qXIDCtf-21">
          <mxGeometry y="840" width="371.6494845360826" height="26" as="geometry" />
        </mxCell>
        <mxCell id="KJCioZVpsJPs6qXIDCtf-55" value="+ get_item(info): void" style="text;strokeColor=none;fillColor=none;align=left;verticalAlign=top;spacingLeft=4;spacingRight=4;overflow=hidden;rotatable=0;points=[[0,0.5],[1,0.5]];portConstraint=eastwest;" vertex="1" parent="KJCioZVpsJPs6qXIDCtf-21">
          <mxGeometry y="866" width="371.6494845360826" height="26" as="geometry" />
        </mxCell>
        <mxCell id="KJCioZVpsJPs6qXIDCtf-56" value="+ check_dipendente(): void" style="text;strokeColor=none;fillColor=none;align=left;verticalAlign=top;spacingLeft=4;spacingRight=4;overflow=hidden;rotatable=0;points=[[0,0.5],[1,0.5]];portConstraint=eastwest;" vertex="1" parent="KJCioZVpsJPs6qXIDCtf-21">
          <mxGeometry y="892" width="371.6494845360826" height="26" as="geometry" />
        </mxCell>
        <mxCell id="KJCioZVpsJPs6qXIDCtf-57" value="+ stampaPDF(list, str): void" style="text;strokeColor=none;fillColor=none;align=left;verticalAlign=top;spacingLeft=4;spacingRight=4;overflow=hidden;rotatable=0;points=[[0,0.5],[1,0.5]];portConstraint=eastwest;" vertex="1" parent="KJCioZVpsJPs6qXIDCtf-21">
          <mxGeometry y="918" width="371.6494845360826" height="26" as="geometry" />
        </mxCell>
        <mxCell id="KJCioZVpsJPs6qXIDCtf-58" value="RicercaAnagraficheView" style="swimlane;fontStyle=1;align=center;verticalAlign=top;childLayout=stackLayout;horizontal=1;startSize=26;horizontalStack=0;resizeParent=1;resizeParentMax=0;resizeLast=0;collapsible=1;marginBottom=0;" vertex="1" parent="KJCioZVpsJPs6qXIDCtf-18">
          <mxGeometry x="453.57896226415096" y="310" width="226.6097169811321" height="294" as="geometry">
            <mxRectangle x="460.72" y="56" width="170" height="26" as="alternateBounds" />
          </mxGeometry>
        </mxCell>
        <mxCell id="KJCioZVpsJPs6qXIDCtf-59" value="+ controller: AnagraficheController&#xa;" style="text;strokeColor=none;fillColor=none;align=left;verticalAlign=top;spacingLeft=4;spacingRight=4;overflow=hidden;rotatable=0;points=[[0,0.5],[1,0.5]];portConstraint=eastwest;" vertex="1" parent="KJCioZVpsJPs6qXIDCtf-58">
          <mxGeometry y="26" width="226.6097169811321" height="26" as="geometry" />
        </mxCell>
        <mxCell id="KJCioZVpsJPs6qXIDCtf-60" value="+ callback: AnagraficheView&#xa;" style="text;strokeColor=none;fillColor=none;align=left;verticalAlign=top;spacingLeft=4;spacingRight=4;overflow=hidden;rotatable=0;points=[[0,0.5],[1,0.5]];portConstraint=eastwest;" vertex="1" parent="KJCioZVpsJPs6qXIDCtf-58">
          <mxGeometry y="52" width="226.6097169811321" height="26" as="geometry" />
        </mxCell>
        <mxCell id="KJCioZVpsJPs6qXIDCtf-61" value="+ table: QTableWidget" style="text;strokeColor=none;fillColor=none;align=left;verticalAlign=top;spacingLeft=4;spacingRight=4;overflow=hidden;rotatable=0;points=[[0,0.5],[1,0.5]];portConstraint=eastwest;" vertex="1" parent="KJCioZVpsJPs6qXIDCtf-58">
          <mxGeometry y="78" width="226.6097169811321" height="26" as="geometry" />
        </mxCell>
        <mxCell id="KJCioZVpsJPs6qXIDCtf-62" value="+ buttons: list&#xa;" style="text;strokeColor=none;fillColor=none;align=left;verticalAlign=top;spacingLeft=4;spacingRight=4;overflow=hidden;rotatable=0;points=[[0,0.5],[1,0.5]];portConstraint=eastwest;" vertex="1" parent="KJCioZVpsJPs6qXIDCtf-58">
          <mxGeometry y="104" width="226.6097169811321" height="26" as="geometry" />
        </mxCell>
        <mxCell id="KJCioZVpsJPs6qXIDCtf-63" value="" style="line;strokeWidth=1;fillColor=none;align=left;verticalAlign=middle;spacingTop=-1;spacingLeft=3;spacingRight=3;rotatable=0;labelPosition=right;points=[];portConstraint=eastwest;" vertex="1" parent="KJCioZVpsJPs6qXIDCtf-58">
          <mxGeometry y="130" width="226.6097169811321" height="8" as="geometry" />
        </mxCell>
        <mxCell id="KJCioZVpsJPs6qXIDCtf-64" value="+ ricerca_cliente(): void" style="text;strokeColor=none;fillColor=none;align=left;verticalAlign=top;spacingLeft=4;spacingRight=4;overflow=hidden;rotatable=0;points=[[0,0.5],[1,0.5]];portConstraint=eastwest;" vertex="1" parent="KJCioZVpsJPs6qXIDCtf-58">
          <mxGeometry y="138" width="226.6097169811321" height="26" as="geometry" />
        </mxCell>
        <mxCell id="KJCioZVpsJPs6qXIDCtf-65" value="+ ricerca_dipendente(): void" style="text;strokeColor=none;fillColor=none;align=left;verticalAlign=top;spacingLeft=4;spacingRight=4;overflow=hidden;rotatable=0;points=[[0,0.5],[1,0.5]];portConstraint=eastwest;" vertex="1" parent="KJCioZVpsJPs6qXIDCtf-58">
          <mxGeometry y="164" width="226.6097169811321" height="26" as="geometry" />
        </mxCell>
        <mxCell id="KJCioZVpsJPs6qXIDCtf-66" value="+ ricerca_fornitore(): void" style="text;strokeColor=none;fillColor=none;align=left;verticalAlign=top;spacingLeft=4;spacingRight=4;overflow=hidden;rotatable=0;points=[[0,0.5],[1,0.5]];portConstraint=eastwest;" vertex="1" parent="KJCioZVpsJPs6qXIDCtf-58">
          <mxGeometry y="190" width="226.6097169811321" height="26" as="geometry" />
        </mxCell>
        <mxCell id="KJCioZVpsJPs6qXIDCtf-67" value="+ on_ricercacliked(list): void" style="text;strokeColor=none;fillColor=none;align=left;verticalAlign=top;spacingLeft=4;spacingRight=4;overflow=hidden;rotatable=0;points=[[0,0.5],[1,0.5]];portConstraint=eastwest;" vertex="1" parent="KJCioZVpsJPs6qXIDCtf-58">
          <mxGeometry y="216" width="226.6097169811321" height="26" as="geometry" />
        </mxCell>
        <mxCell id="KJCioZVpsJPs6qXIDCtf-68" value="+ on_annullacliked(list): void" style="text;strokeColor=none;fillColor=none;align=left;verticalAlign=top;spacingLeft=4;spacingRight=4;overflow=hidden;rotatable=0;points=[[0,0.5],[1,0.5]];portConstraint=eastwest;" vertex="1" parent="KJCioZVpsJPs6qXIDCtf-58">
          <mxGeometry y="242" width="226.6097169811321" height="26" as="geometry" />
        </mxCell>
        <mxCell id="KJCioZVpsJPs6qXIDCtf-69" value="+ on_text_changed(): void" style="text;strokeColor=none;fillColor=none;align=left;verticalAlign=top;spacingLeft=4;spacingRight=4;overflow=hidden;rotatable=0;points=[[0,0.5],[1,0.5]];portConstraint=eastwest;" vertex="1" parent="KJCioZVpsJPs6qXIDCtf-58">
          <mxGeometry y="268" width="226.6097169811321" height="26" as="geometry" />
        </mxCell>
        <mxCell id="KJCioZVpsJPs6qXIDCtf-70" value="Ui_AnagraficheView" style="swimlane;fontStyle=1;align=center;verticalAlign=top;childLayout=stackLayout;horizontal=1;startSize=26;horizontalStack=0;resizeParent=1;resizeParentMax=0;resizeLast=0;collapsible=1;marginBottom=0;" vertex="1" parent="KJCioZVpsJPs6qXIDCtf-18">
          <mxGeometry x="93.5599082568807" y="50" width="216.65908256880738" height="164" as="geometry" />
        </mxCell>
        <mxCell id="KJCioZVpsJPs6qXIDCtf-71" value="" style="line;strokeWidth=1;fillColor=none;align=left;verticalAlign=middle;spacingTop=-1;spacingLeft=3;spacingRight=3;rotatable=0;labelPosition=right;points=[];portConstraint=eastwest;" vertex="1" parent="KJCioZVpsJPs6qXIDCtf-70">
          <mxGeometry y="26" width="216.65908256880738" height="8" as="geometry" />
        </mxCell>
        <mxCell id="KJCioZVpsJPs6qXIDCtf-72" value="+ setupUi(AnagraficheView): void" style="text;strokeColor=none;fillColor=none;align=left;verticalAlign=top;spacingLeft=4;spacingRight=4;overflow=hidden;rotatable=0;points=[[0,0.5],[1,0.5]];portConstraint=eastwest;" vertex="1" parent="KJCioZVpsJPs6qXIDCtf-70">
          <mxGeometry y="34" width="216.65908256880738" height="26" as="geometry" />
        </mxCell>
        <mxCell id="KJCioZVpsJPs6qXIDCtf-73" value="+ labelFont(QLabel): void" style="text;strokeColor=none;fillColor=none;align=left;verticalAlign=top;spacingLeft=4;spacingRight=4;overflow=hidden;rotatable=0;points=[[0,0.5],[1,0.5]];portConstraint=eastwest;" vertex="1" parent="KJCioZVpsJPs6qXIDCtf-70">
          <mxGeometry y="60" width="216.65908256880738" height="26" as="geometry" />
        </mxCell>
        <mxCell id="KJCioZVpsJPs6qXIDCtf-74" value="+ buttonFont(QPushButton): void" style="text;strokeColor=none;fillColor=none;align=left;verticalAlign=top;spacingLeft=4;spacingRight=4;overflow=hidden;rotatable=0;points=[[0,0.5],[1,0.5]];portConstraint=eastwest;" vertex="1" parent="KJCioZVpsJPs6qXIDCtf-70">
          <mxGeometry y="86" width="216.65908256880738" height="26" as="geometry" />
        </mxCell>
        <mxCell id="KJCioZVpsJPs6qXIDCtf-75" value="+ tableFont(QTableWidget): void" style="text;strokeColor=none;fillColor=none;align=left;verticalAlign=top;spacingLeft=4;spacingRight=4;overflow=hidden;rotatable=0;points=[[0,0.5],[1,0.5]];portConstraint=eastwest;" vertex="1" parent="KJCioZVpsJPs6qXIDCtf-70">
          <mxGeometry y="112" width="216.65908256880738" height="26" as="geometry" />
        </mxCell>
        <mxCell id="KJCioZVpsJPs6qXIDCtf-76" value="+ retranslateUi(AnagraficheView): void" style="text;strokeColor=none;fillColor=none;align=left;verticalAlign=top;spacingLeft=4;spacingRight=4;overflow=hidden;rotatable=0;points=[[0,0.5],[1,0.5]];portConstraint=eastwest;" vertex="1" parent="KJCioZVpsJPs6qXIDCtf-70">
          <mxGeometry y="138" width="216.65908256880738" height="26" as="geometry" />
        </mxCell>
        <mxCell id="KJCioZVpsJPs6qXIDCtf-77" style="edgeStyle=orthogonalEdgeStyle;rounded=0;orthogonalLoop=1;jettySize=auto;html=1;exitX=0.5;exitY=0;exitDx=0;exitDy=0;entryX=0.5;entryY=1;entryDx=0;entryDy=0;startArrow=none;startFill=0;endArrow=block;endFill=0;" edge="1" parent="KJCioZVpsJPs6qXIDCtf-18" source="KJCioZVpsJPs6qXIDCtf-21" target="KJCioZVpsJPs6qXIDCtf-70">
          <mxGeometry as="geometry" />
        </mxCell>
        <mxCell id="KJCioZVpsJPs6qXIDCtf-78" value="Ui_RicercaAnagraficheView" style="swimlane;fontStyle=1;align=center;verticalAlign=top;childLayout=stackLayout;horizontal=1;startSize=26;horizontalStack=0;resizeParent=1;resizeParentMax=0;resizeLast=0;collapsible=1;marginBottom=0;" vertex="1" parent="KJCioZVpsJPs6qXIDCtf-18">
          <mxGeometry x="453.57896226415096" y="102" width="226.6097169811321" height="112" as="geometry" />
        </mxCell>
        <mxCell id="KJCioZVpsJPs6qXIDCtf-79" value="" style="line;strokeWidth=1;fillColor=none;align=left;verticalAlign=middle;spacingTop=-1;spacingLeft=3;spacingRight=3;rotatable=0;labelPosition=right;points=[];portConstraint=eastwest;" vertex="1" parent="KJCioZVpsJPs6qXIDCtf-78">
          <mxGeometry y="26" width="226.6097169811321" height="8" as="geometry" />
        </mxCell>
        <mxCell id="KJCioZVpsJPs6qXIDCtf-80" value="+ setupUi(RicercaAnagraficheView): void" style="text;strokeColor=none;fillColor=none;align=left;verticalAlign=top;spacingLeft=4;spacingRight=4;overflow=hidden;rotatable=0;points=[[0,0.5],[1,0.5]];portConstraint=eastwest;" vertex="1" parent="KJCioZVpsJPs6qXIDCtf-78">
          <mxGeometry y="34" width="226.6097169811321" height="26" as="geometry" />
        </mxCell>
        <mxCell id="KJCioZVpsJPs6qXIDCtf-81" value="+ set_cB(QComboBox): void" style="text;strokeColor=none;fillColor=none;align=left;verticalAlign=top;spacingLeft=4;spacingRight=4;overflow=hidden;rotatable=0;points=[[0,0.5],[1,0.5]];portConstraint=eastwest;" vertex="1" parent="KJCioZVpsJPs6qXIDCtf-78">
          <mxGeometry y="60" width="226.6097169811321" height="26" as="geometry" />
        </mxCell>
        <mxCell id="KJCioZVpsJPs6qXIDCtf-82" value="+ retranslateUi(AnagraficheView): void" style="text;strokeColor=none;fillColor=none;align=left;verticalAlign=top;spacingLeft=4;spacingRight=4;overflow=hidden;rotatable=0;points=[[0,0.5],[1,0.5]];portConstraint=eastwest;" vertex="1" parent="KJCioZVpsJPs6qXIDCtf-78">
          <mxGeometry y="86" width="226.6097169811321" height="26" as="geometry" />
        </mxCell>
        <mxCell id="KJCioZVpsJPs6qXIDCtf-83" style="edgeStyle=orthogonalEdgeStyle;rounded=0;orthogonalLoop=1;jettySize=auto;html=1;exitX=0.5;exitY=0;exitDx=0;exitDy=0;entryX=0.499;entryY=1;entryDx=0;entryDy=0;entryPerimeter=0;startArrow=none;startFill=0;endArrow=block;endFill=0;" edge="1" parent="KJCioZVpsJPs6qXIDCtf-18" source="KJCioZVpsJPs6qXIDCtf-58" target="KJCioZVpsJPs6qXIDCtf-82">
          <mxGeometry as="geometry" />
        </mxCell>
        <mxCell id="KJCioZVpsJPs6qXIDCtf-84" value="" style="group" vertex="1" connectable="0" parent="KJCioZVpsJPs6qXIDCtf-16">
          <mxGeometry x="420" y="50" width="330" height="530" as="geometry" />
        </mxCell>
        <mxCell id="KJCioZVpsJPs6qXIDCtf-85" value="" style="shape=folder;fontStyle=1;spacingTop=10;tabWidth=120;tabHeight=30;tabPosition=left;html=1;fillColor=#fff2cc;gradientColor=#ffd966;strokeColor=#d6b656;" vertex="1" parent="KJCioZVpsJPs6qXIDCtf-84">
          <mxGeometry width="330" height="530" as="geometry" />
        </mxCell>
        <mxCell id="KJCioZVpsJPs6qXIDCtf-86" value="&lt;span style=&quot;font-size: 18px&quot;&gt;&lt;b&gt;controller&lt;/b&gt;&lt;/span&gt;" style="text;html=1;strokeColor=none;fillColor=none;align=center;verticalAlign=middle;whiteSpace=wrap;rounded=0;" vertex="1" parent="KJCioZVpsJPs6qXIDCtf-84">
          <mxGeometry width="120" height="30" as="geometry" />
        </mxCell>
        <mxCell id="KJCioZVpsJPs6qXIDCtf-87" value="AnagraficheController" style="swimlane;fontStyle=1;align=center;verticalAlign=top;childLayout=stackLayout;horizontal=1;startSize=26;horizontalStack=0;resizeParent=1;resizeParentMax=0;resizeLast=0;collapsible=1;marginBottom=0;" vertex="1" parent="KJCioZVpsJPs6qXIDCtf-84">
          <mxGeometry x="39.5" y="50" width="251" height="450" as="geometry" />
        </mxCell>
        <mxCell id="KJCioZVpsJPs6qXIDCtf-88" value="+ model: AnagraficheModel" style="text;strokeColor=none;fillColor=none;align=left;verticalAlign=top;spacingLeft=4;spacingRight=4;overflow=hidden;rotatable=0;points=[[0,0.5],[1,0.5]];portConstraint=eastwest;" vertex="1" parent="KJCioZVpsJPs6qXIDCtf-87">
          <mxGeometry y="26" width="251" height="26" as="geometry" />
        </mxCell>
        <mxCell id="KJCioZVpsJPs6qXIDCtf-89" value="" style="line;strokeWidth=1;fillColor=none;align=left;verticalAlign=middle;spacingTop=-1;spacingLeft=3;spacingRight=3;rotatable=0;labelPosition=right;points=[];portConstraint=eastwest;" vertex="1" parent="KJCioZVpsJPs6qXIDCtf-87">
          <mxGeometry y="52" width="251" height="8" as="geometry" />
        </mxCell>
        <mxCell id="KJCioZVpsJPs6qXIDCtf-90" value="+ get_listaclienti(): list" style="text;strokeColor=none;fillColor=none;align=left;verticalAlign=top;spacingLeft=4;spacingRight=4;overflow=hidden;rotatable=0;points=[[0,0.5],[1,0.5]];portConstraint=eastwest;" vertex="1" parent="KJCioZVpsJPs6qXIDCtf-87">
          <mxGeometry y="60" width="251" height="26" as="geometry" />
        </mxCell>
        <mxCell id="KJCioZVpsJPs6qXIDCtf-91" value="+ add_cliente(ClienteModel): void" style="text;strokeColor=none;fillColor=none;align=left;verticalAlign=top;spacingLeft=4;spacingRight=4;overflow=hidden;rotatable=0;points=[[0,0.5],[1,0.5]];portConstraint=eastwest;" vertex="1" parent="KJCioZVpsJPs6qXIDCtf-87">
          <mxGeometry y="86" width="251" height="26" as="geometry" />
        </mxCell>
        <mxCell id="KJCioZVpsJPs6qXIDCtf-92" value="+ salva_cliente(ClienteModel): void" style="text;strokeColor=none;fillColor=none;align=left;verticalAlign=top;spacingLeft=4;spacingRight=4;overflow=hidden;rotatable=0;points=[[0,0.5],[1,0.5]];portConstraint=eastwest;" vertex="1" parent="KJCioZVpsJPs6qXIDCtf-87">
          <mxGeometry y="112" width="251" height="26" as="geometry" />
        </mxCell>
        <mxCell id="KJCioZVpsJPs6qXIDCtf-93" value="+ ricerca_cliente(list): list" style="text;strokeColor=none;fillColor=none;align=left;verticalAlign=top;spacingLeft=4;spacingRight=4;overflow=hidden;rotatable=0;points=[[0,0.5],[1,0.5]];portConstraint=eastwest;" vertex="1" parent="KJCioZVpsJPs6qXIDCtf-87">
          <mxGeometry y="138" width="251" height="26" as="geometry" />
        </mxCell>
        <mxCell id="KJCioZVpsJPs6qXIDCtf-94" value="+ elimina_clienti(list): void" style="text;strokeColor=none;fillColor=none;align=left;verticalAlign=top;spacingLeft=4;spacingRight=4;overflow=hidden;rotatable=0;points=[[0,0.5],[1,0.5]];portConstraint=eastwest;" vertex="1" parent="KJCioZVpsJPs6qXIDCtf-87">
          <mxGeometry y="164" width="251" height="26" as="geometry" />
        </mxCell>
        <mxCell id="KJCioZVpsJPs6qXIDCtf-95" value="+ get_listadipendenti(): list" style="text;strokeColor=none;fillColor=none;align=left;verticalAlign=top;spacingLeft=4;spacingRight=4;overflow=hidden;rotatable=0;points=[[0,0.5],[1,0.5]];portConstraint=eastwest;" vertex="1" parent="KJCioZVpsJPs6qXIDCtf-87">
          <mxGeometry y="190" width="251" height="26" as="geometry" />
        </mxCell>
        <mxCell id="KJCioZVpsJPs6qXIDCtf-96" value="+ add_dipendente(DipendenteModel): void" style="text;strokeColor=none;fillColor=none;align=left;verticalAlign=top;spacingLeft=4;spacingRight=4;overflow=hidden;rotatable=0;points=[[0,0.5],[1,0.5]];portConstraint=eastwest;" vertex="1" parent="KJCioZVpsJPs6qXIDCtf-87">
          <mxGeometry y="216" width="251" height="26" as="geometry" />
        </mxCell>
        <mxCell id="KJCioZVpsJPs6qXIDCtf-97" value="+ salva_dipendente(DipendenteModel): void" style="text;strokeColor=none;fillColor=none;align=left;verticalAlign=top;spacingLeft=4;spacingRight=4;overflow=hidden;rotatable=0;points=[[0,0.5],[1,0.5]];portConstraint=eastwest;" vertex="1" parent="KJCioZVpsJPs6qXIDCtf-87">
          <mxGeometry y="242" width="251" height="26" as="geometry" />
        </mxCell>
        <mxCell id="KJCioZVpsJPs6qXIDCtf-98" value="+ ricerca_dipendente(list): list" style="text;strokeColor=none;fillColor=none;align=left;verticalAlign=top;spacingLeft=4;spacingRight=4;overflow=hidden;rotatable=0;points=[[0,0.5],[1,0.5]];portConstraint=eastwest;" vertex="1" parent="KJCioZVpsJPs6qXIDCtf-87">
          <mxGeometry y="268" width="251" height="26" as="geometry" />
        </mxCell>
        <mxCell id="KJCioZVpsJPs6qXIDCtf-99" value="+ elimina_dipendenti(list): void" style="text;strokeColor=none;fillColor=none;align=left;verticalAlign=top;spacingLeft=4;spacingRight=4;overflow=hidden;rotatable=0;points=[[0,0.5],[1,0.5]];portConstraint=eastwest;" vertex="1" parent="KJCioZVpsJPs6qXIDCtf-87">
          <mxGeometry y="294" width="251" height="26" as="geometry" />
        </mxCell>
        <mxCell id="KJCioZVpsJPs6qXIDCtf-100" value="+ get_listafornitori(): void" style="text;strokeColor=none;fillColor=none;align=left;verticalAlign=top;spacingLeft=4;spacingRight=4;overflow=hidden;rotatable=0;points=[[0,0.5],[1,0.5]];portConstraint=eastwest;" vertex="1" parent="KJCioZVpsJPs6qXIDCtf-87">
          <mxGeometry y="320" width="251" height="26" as="geometry" />
        </mxCell>
        <mxCell id="KJCioZVpsJPs6qXIDCtf-101" value="+ add_fornitore(FornitoreModel): void" style="text;strokeColor=none;fillColor=none;align=left;verticalAlign=top;spacingLeft=4;spacingRight=4;overflow=hidden;rotatable=0;points=[[0,0.5],[1,0.5]];portConstraint=eastwest;" vertex="1" parent="KJCioZVpsJPs6qXIDCtf-87">
          <mxGeometry y="346" width="251" height="26" as="geometry" />
        </mxCell>
        <mxCell id="KJCioZVpsJPs6qXIDCtf-102" value="+ salva_fornitore(FornitoreModel): void" style="text;strokeColor=none;fillColor=none;align=left;verticalAlign=top;spacingLeft=4;spacingRight=4;overflow=hidden;rotatable=0;points=[[0,0.5],[1,0.5]];portConstraint=eastwest;" vertex="1" parent="KJCioZVpsJPs6qXIDCtf-87">
          <mxGeometry y="372" width="251" height="26" as="geometry" />
        </mxCell>
        <mxCell id="KJCioZVpsJPs6qXIDCtf-103" value="+ ricerca_fornitore(list): list" style="text;strokeColor=none;fillColor=none;align=left;verticalAlign=top;spacingLeft=4;spacingRight=4;overflow=hidden;rotatable=0;points=[[0,0.5],[1,0.5]];portConstraint=eastwest;" vertex="1" parent="KJCioZVpsJPs6qXIDCtf-87">
          <mxGeometry y="398" width="251" height="26" as="geometry" />
        </mxCell>
        <mxCell id="KJCioZVpsJPs6qXIDCtf-104" value="+ elimina_fornitori(list): void" style="text;strokeColor=none;fillColor=none;align=left;verticalAlign=top;spacingLeft=4;spacingRight=4;overflow=hidden;rotatable=0;points=[[0,0.5],[1,0.5]];portConstraint=eastwest;" vertex="1" parent="KJCioZVpsJPs6qXIDCtf-87">
          <mxGeometry y="424" width="251" height="26" as="geometry" />
        </mxCell>
        <mxCell id="KJCioZVpsJPs6qXIDCtf-105" value="" style="group" vertex="1" connectable="0" parent="KJCioZVpsJPs6qXIDCtf-16">
          <mxGeometry x="50" y="50" width="330" height="610" as="geometry" />
        </mxCell>
        <mxCell id="KJCioZVpsJPs6qXIDCtf-106" value="" style="shape=folder;fontStyle=1;spacingTop=10;tabWidth=120;tabHeight=30;tabPosition=left;html=1;fillColor=#f8cecc;gradientColor=#ea6b66;strokeColor=#b85450;" vertex="1" parent="KJCioZVpsJPs6qXIDCtf-105">
          <mxGeometry width="330" height="610" as="geometry" />
        </mxCell>
        <mxCell id="KJCioZVpsJPs6qXIDCtf-107" value="&lt;font style=&quot;font-size: 18px&quot;&gt;&lt;b&gt;model&lt;/b&gt;&lt;/font&gt;" style="text;html=1;strokeColor=none;fillColor=none;align=center;verticalAlign=middle;whiteSpace=wrap;rounded=0;" vertex="1" parent="KJCioZVpsJPs6qXIDCtf-105">
          <mxGeometry width="120" height="30" as="geometry" />
        </mxCell>
        <mxCell id="KJCioZVpsJPs6qXIDCtf-108" value="CamereModel" style="swimlane;fontStyle=1;align=center;verticalAlign=top;childLayout=stackLayout;horizontal=1;startSize=26;horizontalStack=0;resizeParent=1;resizeParentMax=0;resizeLast=0;collapsible=1;marginBottom=0;" vertex="1" parent="KJCioZVpsJPs6qXIDCtf-105">
          <mxGeometry x="39.5" y="60" width="251" height="528" as="geometry" />
        </mxCell>
        <mxCell id="KJCioZVpsJPs6qXIDCtf-109" value="+ db: Connection" style="text;strokeColor=none;fillColor=none;align=left;verticalAlign=top;spacingLeft=4;spacingRight=4;overflow=hidden;rotatable=0;points=[[0,0.5],[1,0.5]];portConstraint=eastwest;" vertex="1" parent="KJCioZVpsJPs6qXIDCtf-108">
          <mxGeometry y="26" width="251" height="26" as="geometry" />
        </mxCell>
        <mxCell id="KJCioZVpsJPs6qXIDCtf-110" value="+ listaclienti: list" style="text;strokeColor=none;fillColor=none;align=left;verticalAlign=top;spacingLeft=4;spacingRight=4;overflow=hidden;rotatable=0;points=[[0,0.5],[1,0.5]];portConstraint=eastwest;" vertex="1" parent="KJCioZVpsJPs6qXIDCtf-108">
          <mxGeometry y="52" width="251" height="26" as="geometry" />
        </mxCell>
        <mxCell id="KJCioZVpsJPs6qXIDCtf-111" value="+ listafornitori: list" style="text;strokeColor=none;fillColor=none;align=left;verticalAlign=top;spacingLeft=4;spacingRight=4;overflow=hidden;rotatable=0;points=[[0,0.5],[1,0.5]];portConstraint=eastwest;" vertex="1" parent="KJCioZVpsJPs6qXIDCtf-108">
          <mxGeometry y="78" width="251" height="26" as="geometry" />
        </mxCell>
        <mxCell id="KJCioZVpsJPs6qXIDCtf-112" value="+ listadipendenti: list" style="text;strokeColor=none;fillColor=none;align=left;verticalAlign=top;spacingLeft=4;spacingRight=4;overflow=hidden;rotatable=0;points=[[0,0.5],[1,0.5]];portConstraint=eastwest;" vertex="1" parent="KJCioZVpsJPs6qXIDCtf-108">
          <mxGeometry y="104" width="251" height="26" as="geometry" />
        </mxCell>
        <mxCell id="KJCioZVpsJPs6qXIDCtf-113" value="" style="line;strokeWidth=1;fillColor=none;align=left;verticalAlign=middle;spacingTop=-1;spacingLeft=3;spacingRight=3;rotatable=0;labelPosition=right;points=[];portConstraint=eastwest;" vertex="1" parent="KJCioZVpsJPs6qXIDCtf-108">
          <mxGeometry y="130" width="251" height="8" as="geometry" />
        </mxCell>
        <mxCell id="KJCioZVpsJPs6qXIDCtf-114" value="+ update_listaclienti(): void" style="text;strokeColor=none;fillColor=none;align=left;verticalAlign=top;spacingLeft=4;spacingRight=4;overflow=hidden;rotatable=0;points=[[0,0.5],[1,0.5]];portConstraint=eastwest;" vertex="1" parent="KJCioZVpsJPs6qXIDCtf-108">
          <mxGeometry y="138" width="251" height="26" as="geometry" />
        </mxCell>
        <mxCell id="KJCioZVpsJPs6qXIDCtf-115" value="+ add_cliente(ClienteModel): void" style="text;strokeColor=none;fillColor=none;align=left;verticalAlign=top;spacingLeft=4;spacingRight=4;overflow=hidden;rotatable=0;points=[[0,0.5],[1,0.5]];portConstraint=eastwest;" vertex="1" parent="KJCioZVpsJPs6qXIDCtf-108">
          <mxGeometry y="164" width="251" height="26" as="geometry" />
        </mxCell>
        <mxCell id="KJCioZVpsJPs6qXIDCtf-116" value="+ salva_cliente(ClienteModel): void" style="text;strokeColor=none;fillColor=none;align=left;verticalAlign=top;spacingLeft=4;spacingRight=4;overflow=hidden;rotatable=0;points=[[0,0.5],[1,0.5]];portConstraint=eastwest;" vertex="1" parent="KJCioZVpsJPs6qXIDCtf-108">
          <mxGeometry y="190" width="251" height="26" as="geometry" />
        </mxCell>
        <mxCell id="KJCioZVpsJPs6qXIDCtf-117" value="+ ricerca_cliente(list): list" style="text;strokeColor=none;fillColor=none;align=left;verticalAlign=top;spacingLeft=4;spacingRight=4;overflow=hidden;rotatable=0;points=[[0,0.5],[1,0.5]];portConstraint=eastwest;" vertex="1" parent="KJCioZVpsJPs6qXIDCtf-108">
          <mxGeometry y="216" width="251" height="26" as="geometry" />
        </mxCell>
        <mxCell id="KJCioZVpsJPs6qXIDCtf-118" value="+ elimina_clienti(list): void" style="text;strokeColor=none;fillColor=none;align=left;verticalAlign=top;spacingLeft=4;spacingRight=4;overflow=hidden;rotatable=0;points=[[0,0.5],[1,0.5]];portConstraint=eastwest;" vertex="1" parent="KJCioZVpsJPs6qXIDCtf-108">
          <mxGeometry y="242" width="251" height="26" as="geometry" />
        </mxCell>
        <mxCell id="KJCioZVpsJPs6qXIDCtf-119" value="+ update_listadipendenti(): void" style="text;strokeColor=none;fillColor=none;align=left;verticalAlign=top;spacingLeft=4;spacingRight=4;overflow=hidden;rotatable=0;points=[[0,0.5],[1,0.5]];portConstraint=eastwest;" vertex="1" parent="KJCioZVpsJPs6qXIDCtf-108">
          <mxGeometry y="268" width="251" height="26" as="geometry" />
        </mxCell>
        <mxCell id="KJCioZVpsJPs6qXIDCtf-120" value="+ add_dipendente(DipendenteModel): void" style="text;strokeColor=none;fillColor=none;align=left;verticalAlign=top;spacingLeft=4;spacingRight=4;overflow=hidden;rotatable=0;points=[[0,0.5],[1,0.5]];portConstraint=eastwest;" vertex="1" parent="KJCioZVpsJPs6qXIDCtf-108">
          <mxGeometry y="294" width="251" height="26" as="geometry" />
        </mxCell>
        <mxCell id="KJCioZVpsJPs6qXIDCtf-121" value="+ salva_dipendente(DipendenteModel): void" style="text;strokeColor=none;fillColor=none;align=left;verticalAlign=top;spacingLeft=4;spacingRight=4;overflow=hidden;rotatable=0;points=[[0,0.5],[1,0.5]];portConstraint=eastwest;" vertex="1" parent="KJCioZVpsJPs6qXIDCtf-108">
          <mxGeometry y="320" width="251" height="26" as="geometry" />
        </mxCell>
        <mxCell id="KJCioZVpsJPs6qXIDCtf-122" value="+ ricerca_dipendente(list): list" style="text;strokeColor=none;fillColor=none;align=left;verticalAlign=top;spacingLeft=4;spacingRight=4;overflow=hidden;rotatable=0;points=[[0,0.5],[1,0.5]];portConstraint=eastwest;" vertex="1" parent="KJCioZVpsJPs6qXIDCtf-108">
          <mxGeometry y="346" width="251" height="26" as="geometry" />
        </mxCell>
        <mxCell id="KJCioZVpsJPs6qXIDCtf-123" value="+ elimina_dipendenti(list): void" style="text;strokeColor=none;fillColor=none;align=left;verticalAlign=top;spacingLeft=4;spacingRight=4;overflow=hidden;rotatable=0;points=[[0,0.5],[1,0.5]];portConstraint=eastwest;" vertex="1" parent="KJCioZVpsJPs6qXIDCtf-108">
          <mxGeometry y="372" width="251" height="26" as="geometry" />
        </mxCell>
        <mxCell id="KJCioZVpsJPs6qXIDCtf-124" value="+ update_listafornitori(): void" style="text;strokeColor=none;fillColor=none;align=left;verticalAlign=top;spacingLeft=4;spacingRight=4;overflow=hidden;rotatable=0;points=[[0,0.5],[1,0.5]];portConstraint=eastwest;" vertex="1" parent="KJCioZVpsJPs6qXIDCtf-108">
          <mxGeometry y="398" width="251" height="26" as="geometry" />
        </mxCell>
        <mxCell id="KJCioZVpsJPs6qXIDCtf-125" value="+ add_fornitore(FornitoreModel): void" style="text;strokeColor=none;fillColor=none;align=left;verticalAlign=top;spacingLeft=4;spacingRight=4;overflow=hidden;rotatable=0;points=[[0,0.5],[1,0.5]];portConstraint=eastwest;" vertex="1" parent="KJCioZVpsJPs6qXIDCtf-108">
          <mxGeometry y="424" width="251" height="26" as="geometry" />
        </mxCell>
        <mxCell id="KJCioZVpsJPs6qXIDCtf-126" value="+ salva_fornitore(FornitoreModel): void" style="text;strokeColor=none;fillColor=none;align=left;verticalAlign=top;spacingLeft=4;spacingRight=4;overflow=hidden;rotatable=0;points=[[0,0.5],[1,0.5]];portConstraint=eastwest;" vertex="1" parent="KJCioZVpsJPs6qXIDCtf-108">
          <mxGeometry y="450" width="251" height="26" as="geometry" />
        </mxCell>
        <mxCell id="KJCioZVpsJPs6qXIDCtf-127" value="+ ricerca_fornitore(list): list" style="text;strokeColor=none;fillColor=none;align=left;verticalAlign=top;spacingLeft=4;spacingRight=4;overflow=hidden;rotatable=0;points=[[0,0.5],[1,0.5]];portConstraint=eastwest;" vertex="1" parent="KJCioZVpsJPs6qXIDCtf-108">
          <mxGeometry y="476" width="251" height="26" as="geometry" />
        </mxCell>
        <mxCell id="KJCioZVpsJPs6qXIDCtf-128" value="+ elimina_fornitori(list): void" style="text;strokeColor=none;fillColor=none;align=left;verticalAlign=top;spacingLeft=4;spacingRight=4;overflow=hidden;rotatable=0;points=[[0,0.5],[1,0.5]];portConstraint=eastwest;" vertex="1" parent="KJCioZVpsJPs6qXIDCtf-108">
          <mxGeometry y="502" width="251" height="26" as="geometry" />
        </mxCell>
        <mxCell id="KJCioZVpsJPs6qXIDCtf-129" style="edgeStyle=orthogonalEdgeStyle;rounded=0;orthogonalLoop=1;jettySize=auto;html=1;exitX=0.5;exitY=1;exitDx=0;exitDy=0;exitPerimeter=0;startArrow=none;startFill=0;endArrow=block;endFill=0;" edge="1" parent="KJCioZVpsJPs6qXIDCtf-16" source="KJCioZVpsJPs6qXIDCtf-17" target="KJCioZVpsJPs6qXIDCtf-17">
          <mxGeometry relative="1" as="geometry" />
        </mxCell>
        <mxCell id="KJCioZVpsJPs6qXIDCtf-130" value="&lt;b&gt;&lt;font style=&quot;font-size: 18px&quot;&gt;camere&lt;/font&gt;&lt;/b&gt;" style="text;html=1;strokeColor=none;fillColor=none;align=center;verticalAlign=middle;whiteSpace=wrap;rounded=0;" vertex="1" parent="KJCioZVpsJPs6qXIDCtf-16">
          <mxGeometry width="130" height="30" as="geometry" />
        </mxCell>
      </root>
    </mxGraphModel>
  </diagram>
</mxfile>
